G04 #@! TF.GenerationSoftware,KiCad,Pcbnew,5.1.4-3.fc30*
G04 #@! TF.CreationDate,2020-01-13T02:26:48-05:00*
G04 #@! TF.ProjectId,librem5-m2-breakout,6c696272-656d-4352-9d6d-322d62726561,v0.5.0*
G04 #@! TF.SameCoordinates,Original*
G04 #@! TF.FileFunction,Legend,Top*
G04 #@! TF.FilePolarity,Positive*
%FSLAX46Y46*%
G04 Gerber Fmt 4.6, Leading zero omitted, Abs format (unit mm)*
G04 Created by KiCad (PCBNEW 5.1.4-3.fc30) date 2020-01-13 02:26:48*
%MOMM*%
%LPD*%
G04 APERTURE LIST*
%ADD10C,0.150000*%
%ADD11C,0.120000*%
G04 APERTURE END LIST*
D10*
X122952380Y-103166666D02*
X121952380Y-103166666D01*
X122428571Y-103166666D02*
X122428571Y-102595238D01*
X122952380Y-102595238D02*
X121952380Y-102595238D01*
X121952380Y-101928571D02*
X121952380Y-101738095D01*
X122000000Y-101642857D01*
X122095238Y-101547619D01*
X122285714Y-101500000D01*
X122619047Y-101500000D01*
X122809523Y-101547619D01*
X122904761Y-101642857D01*
X122952380Y-101738095D01*
X122952380Y-101928571D01*
X122904761Y-102023809D01*
X122809523Y-102119047D01*
X122619047Y-102166666D01*
X122285714Y-102166666D01*
X122095238Y-102119047D01*
X122000000Y-102023809D01*
X121952380Y-101928571D01*
X122904761Y-101119047D02*
X122952380Y-100976190D01*
X122952380Y-100738095D01*
X122904761Y-100642857D01*
X122857142Y-100595238D01*
X122761904Y-100547619D01*
X122666666Y-100547619D01*
X122571428Y-100595238D01*
X122523809Y-100642857D01*
X122476190Y-100738095D01*
X122428571Y-100928571D01*
X122380952Y-101023809D01*
X122333333Y-101071428D01*
X122238095Y-101119047D01*
X122142857Y-101119047D01*
X122047619Y-101071428D01*
X122000000Y-101023809D01*
X121952380Y-100928571D01*
X121952380Y-100690476D01*
X122000000Y-100547619D01*
X121952380Y-100261904D02*
X121952380Y-99690476D01*
X122952380Y-99976190D02*
X121952380Y-99976190D01*
D11*
X125900000Y-89500000D02*
X125650000Y-89400000D01*
X125900000Y-89500000D02*
X125650000Y-89600000D01*
X125600000Y-89800000D02*
X125900000Y-89500000D01*
X125600000Y-89200000D02*
X125600000Y-89800000D01*
X125900000Y-89500000D02*
X125600000Y-89200000D01*
X125100000Y-89500000D02*
X125900000Y-89500000D01*
X129150000Y-87800000D02*
X129150000Y-87650000D01*
X129000000Y-87650000D02*
X129150000Y-87800000D01*
X128900000Y-88000000D02*
X129000000Y-87650000D01*
X128850000Y-87650000D02*
X128900000Y-88000000D01*
X129350000Y-87600000D02*
X128800000Y-87600000D01*
X128800000Y-88150000D02*
X129350000Y-87600000D01*
X128800000Y-87600000D02*
X128800000Y-88150000D01*
X129550000Y-88350000D02*
X128800000Y-87600000D01*
D10*
X128942857Y-88489285D02*
X129407142Y-88489285D01*
X129157142Y-88775000D01*
X129264285Y-88775000D01*
X129335714Y-88810714D01*
X129371428Y-88846428D01*
X129407142Y-88917857D01*
X129407142Y-89096428D01*
X129371428Y-89167857D01*
X129335714Y-89203571D01*
X129264285Y-89239285D01*
X129050000Y-89239285D01*
X128978571Y-89203571D01*
X128942857Y-89167857D01*
X129621428Y-88489285D02*
X129871428Y-89239285D01*
X130121428Y-88489285D01*
X130300000Y-88489285D02*
X130764285Y-88489285D01*
X130514285Y-88775000D01*
X130621428Y-88775000D01*
X130692857Y-88810714D01*
X130728571Y-88846428D01*
X130764285Y-88917857D01*
X130764285Y-89096428D01*
X130728571Y-89167857D01*
X130692857Y-89203571D01*
X130621428Y-89239285D01*
X130407142Y-89239285D01*
X130335714Y-89203571D01*
X130300000Y-89167857D01*
X130907142Y-89310714D02*
X131478571Y-89310714D01*
X131550000Y-88489285D02*
X131978571Y-88489285D01*
X131764285Y-89239285D02*
X131764285Y-88489285D01*
X132157142Y-88489285D02*
X132657142Y-89239285D01*
X132657142Y-88489285D02*
X132157142Y-89239285D01*
X121707142Y-89839285D02*
X121278571Y-89839285D01*
X121492857Y-89839285D02*
X121492857Y-89089285D01*
X121421428Y-89196428D01*
X121350000Y-89267857D01*
X121278571Y-89303571D01*
X121921428Y-89089285D02*
X122171428Y-89839285D01*
X122421428Y-89089285D01*
X122778571Y-89410714D02*
X122707142Y-89375000D01*
X122671428Y-89339285D01*
X122635714Y-89267857D01*
X122635714Y-89232142D01*
X122671428Y-89160714D01*
X122707142Y-89125000D01*
X122778571Y-89089285D01*
X122921428Y-89089285D01*
X122992857Y-89125000D01*
X123028571Y-89160714D01*
X123064285Y-89232142D01*
X123064285Y-89267857D01*
X123028571Y-89339285D01*
X122992857Y-89375000D01*
X122921428Y-89410714D01*
X122778571Y-89410714D01*
X122707142Y-89446428D01*
X122671428Y-89482142D01*
X122635714Y-89553571D01*
X122635714Y-89696428D01*
X122671428Y-89767857D01*
X122707142Y-89803571D01*
X122778571Y-89839285D01*
X122921428Y-89839285D01*
X122992857Y-89803571D01*
X123028571Y-89767857D01*
X123064285Y-89696428D01*
X123064285Y-89553571D01*
X123028571Y-89482142D01*
X122992857Y-89446428D01*
X122921428Y-89410714D01*
X123207142Y-89910714D02*
X123778571Y-89910714D01*
X123850000Y-89089285D02*
X124278571Y-89089285D01*
X124064285Y-89839285D02*
X124064285Y-89089285D01*
X124457142Y-89089285D02*
X124957142Y-89839285D01*
X124957142Y-89089285D02*
X124457142Y-89839285D01*
X131975000Y-85739285D02*
X131725000Y-85382142D01*
X131546428Y-85739285D02*
X131546428Y-84989285D01*
X131832142Y-84989285D01*
X131903571Y-85025000D01*
X131939285Y-85060714D01*
X131975000Y-85132142D01*
X131975000Y-85239285D01*
X131939285Y-85310714D01*
X131903571Y-85346428D01*
X131832142Y-85382142D01*
X131546428Y-85382142D01*
X132225000Y-84989285D02*
X132725000Y-85739285D01*
X132725000Y-84989285D02*
X132225000Y-85739285D01*
X123128571Y-87725000D02*
X123057142Y-87689285D01*
X122950000Y-87689285D01*
X122842857Y-87725000D01*
X122771428Y-87796428D01*
X122735714Y-87867857D01*
X122700000Y-88010714D01*
X122700000Y-88117857D01*
X122735714Y-88260714D01*
X122771428Y-88332142D01*
X122842857Y-88403571D01*
X122950000Y-88439285D01*
X123021428Y-88439285D01*
X123128571Y-88403571D01*
X123164285Y-88367857D01*
X123164285Y-88117857D01*
X123021428Y-88117857D01*
X123485714Y-88439285D02*
X123485714Y-87689285D01*
X123914285Y-88439285D01*
X123914285Y-87689285D01*
X124271428Y-88439285D02*
X124271428Y-87689285D01*
X124450000Y-87689285D01*
X124557142Y-87725000D01*
X124628571Y-87796428D01*
X124664285Y-87867857D01*
X124700000Y-88010714D01*
X124700000Y-88117857D01*
X124664285Y-88260714D01*
X124628571Y-88332142D01*
X124557142Y-88403571D01*
X124450000Y-88439285D01*
X124271428Y-88439285D01*
X122071428Y-98535714D02*
X122071428Y-98869047D01*
X121547619Y-99011904D02*
X121547619Y-98535714D01*
X122547619Y-98535714D01*
X122547619Y-99011904D01*
D11*
X123590000Y-84970000D02*
X123590000Y-87630000D01*
X128730000Y-84970000D02*
X123590000Y-84970000D01*
X128730000Y-87630000D02*
X123590000Y-87630000D01*
X128730000Y-84970000D02*
X128730000Y-87630000D01*
X130000000Y-84970000D02*
X131330000Y-84970000D01*
X131330000Y-84970000D02*
X131330000Y-86300000D01*
X126130000Y-90630000D02*
X128790000Y-90630000D01*
X126130000Y-90570000D02*
X126130000Y-90630000D01*
X128790000Y-90570000D02*
X128790000Y-90630000D01*
X126130000Y-90570000D02*
X128790000Y-90570000D01*
X126130000Y-89300000D02*
X126130000Y-87970000D01*
X126130000Y-87970000D02*
X127460000Y-87970000D01*
M02*
