G04 #@! TF.GenerationSoftware,KiCad,Pcbnew,6.0.7-1.fc36*
G04 #@! TF.CreationDate,2022-08-19T16:17:08-04:00*
G04 #@! TF.ProjectId,librem5-m2-breakout,6c696272-656d-4352-9d6d-322d62726561,v0.5.0*
G04 #@! TF.SameCoordinates,Original*
G04 #@! TF.FileFunction,Copper,L2,Bot*
G04 #@! TF.FilePolarity,Positive*
%FSLAX46Y46*%
G04 Gerber Fmt 4.6, Leading zero omitted, Abs format (unit mm)*
G04 Created by KiCad (PCBNEW 6.0.7-1.fc36) date 2022-08-19 16:17:08*
%MOMM*%
%LPD*%
G01*
G04 APERTURE LIST*
G04 Aperture macros list*
%AMRoundRect*
0 Rectangle with rounded corners*
0 $1 Rounding radius*
0 $2 $3 $4 $5 $6 $7 $8 $9 X,Y pos of 4 corners*
0 Add a 4 corners polygon primitive as box body*
4,1,4,$2,$3,$4,$5,$6,$7,$8,$9,$2,$3,0*
0 Add four circle primitives for the rounded corners*
1,1,$1+$1,$2,$3*
1,1,$1+$1,$4,$5*
1,1,$1+$1,$6,$7*
1,1,$1+$1,$8,$9*
0 Add four rect primitives between the rounded corners*
20,1,$1+$1,$2,$3,$4,$5,0*
20,1,$1+$1,$4,$5,$6,$7,0*
20,1,$1+$1,$6,$7,$8,$9,0*
20,1,$1+$1,$8,$9,$2,$3,0*%
G04 Aperture macros list end*
G04 #@! TA.AperFunction,ComponentPad*
%ADD10C,6.150000*%
G04 #@! TD*
G04 #@! TA.AperFunction,SMDPad,CuDef*
%ADD11R,2.200000X0.350000*%
G04 #@! TD*
G04 #@! TA.AperFunction,ComponentPad*
%ADD12R,1.700000X1.700000*%
G04 #@! TD*
G04 #@! TA.AperFunction,ComponentPad*
%ADD13O,1.700000X1.700000*%
G04 #@! TD*
G04 #@! TA.AperFunction,SMDPad,CuDef*
%ADD14RoundRect,0.237500X0.237500X-0.287500X0.237500X0.287500X-0.237500X0.287500X-0.237500X-0.287500X0*%
G04 #@! TD*
G04 #@! TA.AperFunction,SMDPad,CuDef*
%ADD15R,1.560000X0.650000*%
G04 #@! TD*
G04 #@! TA.AperFunction,ViaPad*
%ADD16C,0.800000*%
G04 #@! TD*
G04 #@! TA.AperFunction,Conductor*
%ADD17C,0.250000*%
G04 #@! TD*
G04 APERTURE END LIST*
D10*
X148850000Y-95000000D03*
D11*
X120250000Y-104000000D03*
X120250000Y-103500000D03*
X120250000Y-103000000D03*
X120250000Y-102500000D03*
X120250000Y-102000000D03*
X120250000Y-101500000D03*
X120250000Y-101000000D03*
X120250000Y-100500000D03*
X120250000Y-100000000D03*
X120250000Y-99500000D03*
X120250000Y-99000000D03*
X120250000Y-96500000D03*
X120250000Y-96000000D03*
X120250000Y-95500000D03*
X120250000Y-95000000D03*
X120250000Y-94500000D03*
X120250000Y-94000000D03*
X120250000Y-93500000D03*
X120250000Y-93000000D03*
X120250000Y-92500000D03*
X120250000Y-92000000D03*
X120250000Y-91500000D03*
X120250000Y-91000000D03*
X120250000Y-90500000D03*
X120250000Y-90000000D03*
X120250000Y-89500000D03*
X120250000Y-89000000D03*
X120250000Y-88500000D03*
X120250000Y-88000000D03*
X120250000Y-87500000D03*
X120250000Y-87000000D03*
X120250000Y-86500000D03*
X120250000Y-86000000D03*
D12*
X127460000Y-89300000D03*
X130000000Y-86300000D03*
D13*
X127460000Y-86300000D03*
X124920000Y-86300000D03*
D14*
X128200000Y-103175000D03*
X128200000Y-101425000D03*
X131300000Y-99775000D03*
X131300000Y-98025000D03*
X134500000Y-99775000D03*
X134500000Y-98025000D03*
X132900000Y-99775000D03*
X132900000Y-98025000D03*
D15*
X133650000Y-103450000D03*
X133650000Y-102500000D03*
X133650000Y-101550000D03*
X136350000Y-101550000D03*
X136350000Y-103450000D03*
D14*
X129800000Y-103175000D03*
X129800000Y-101425000D03*
D16*
X126500000Y-94000000D03*
X123900000Y-92800000D03*
X131300000Y-102250000D03*
X134000000Y-86000000D03*
X135000000Y-88000000D03*
X122000000Y-93900000D03*
X137000000Y-90000000D03*
X139000000Y-104500000D03*
X140000000Y-101000000D03*
X131000000Y-93000000D03*
X140000000Y-99000000D03*
X123000000Y-103000016D03*
X123900000Y-93900016D03*
X125300000Y-93900000D03*
D17*
X134500000Y-99775000D02*
X134500000Y-100700000D01*
X134500000Y-100700000D02*
X133650000Y-101550000D01*
X136324999Y-104050001D02*
X125675001Y-104050001D01*
X120250000Y-86000000D02*
X122100000Y-86000000D01*
X120250000Y-86500000D02*
X122000000Y-86500000D01*
X122300000Y-104000000D02*
X120250000Y-104000000D01*
X130375000Y-98025000D02*
X131300000Y-98025000D01*
X128200000Y-101425000D02*
X129800000Y-101425000D01*
X121800000Y-103500000D02*
X122300000Y-104000000D01*
X125625000Y-104000000D02*
X125675001Y-104050001D01*
X130525000Y-98025000D02*
X126500000Y-94000000D01*
X136350000Y-103450000D02*
X136350000Y-104025000D01*
X125625000Y-104000000D02*
X128200000Y-101425000D01*
X122100000Y-86000000D02*
X122300000Y-86200000D01*
X136350000Y-104025000D02*
X136324999Y-104050001D01*
X131300000Y-98025000D02*
X130525000Y-98025000D01*
X131300000Y-98025000D02*
X132900000Y-98025000D01*
X129800000Y-98600000D02*
X130375000Y-98025000D01*
X132900000Y-98025000D02*
X134500000Y-98025000D01*
X129800000Y-101425000D02*
X129800000Y-98600000D01*
X120250000Y-103500000D02*
X121800000Y-103500000D01*
X122300000Y-91200000D02*
X123500001Y-92400001D01*
X122300000Y-86200000D02*
X122300000Y-91200000D01*
X123500001Y-92400001D02*
X123900000Y-92800000D01*
X122000000Y-86500000D02*
X122300000Y-86200000D01*
X122300000Y-104000000D02*
X125625000Y-104000000D01*
X131300000Y-99775000D02*
X131300000Y-100400000D01*
X132450000Y-101550000D02*
X132620000Y-101550000D01*
X129800000Y-103175000D02*
X128200000Y-103175000D01*
X131300000Y-102250000D02*
X131300000Y-100400000D01*
X132620000Y-101550000D02*
X133650000Y-101550000D01*
X130375000Y-103175000D02*
X131300000Y-102250000D01*
X134500000Y-99775000D02*
X131300000Y-99775000D01*
X123000000Y-100700000D02*
X123000000Y-103000016D01*
X120250000Y-100000000D02*
X122300000Y-100000000D01*
X131300000Y-100400000D02*
X132450000Y-101550000D01*
X122300000Y-100000000D02*
X123000000Y-100700000D01*
X132900000Y-100800000D02*
X133650000Y-101550000D01*
X129800000Y-103175000D02*
X130375000Y-103175000D01*
X132900000Y-99775000D02*
X132900000Y-100800000D01*
X122800000Y-97900000D02*
X122800000Y-96857937D01*
X126300000Y-87500000D02*
X128800000Y-87500000D01*
X124600000Y-95057937D02*
X124600000Y-89200000D01*
X124600000Y-89200000D02*
X126300000Y-87500000D01*
X122800000Y-96857937D02*
X124600000Y-95057937D01*
X129000000Y-87300000D02*
X130000000Y-86300000D01*
X121700000Y-99000000D02*
X122800000Y-97900000D01*
X128800000Y-87500000D02*
X129000000Y-87300000D01*
X120250000Y-99000000D02*
X121700000Y-99000000D01*
X136300000Y-100000000D02*
X136300000Y-93050498D01*
X136300000Y-93050498D02*
X132549502Y-89300000D01*
X121865701Y-96500000D02*
X123900000Y-94465701D01*
X127460000Y-91740000D02*
X125699999Y-93500001D01*
X133650000Y-102500000D02*
X134300002Y-102500000D01*
X135000000Y-101300000D02*
X136300000Y-100000000D01*
X132549502Y-89300000D02*
X127460000Y-89300000D01*
X120250000Y-96500000D02*
X121865701Y-96500000D01*
X125699999Y-93500001D02*
X125300000Y-93900000D01*
X135000000Y-101800002D02*
X135000000Y-101300000D01*
X134300002Y-102500000D02*
X135000000Y-101800002D01*
X123900000Y-94465701D02*
X123900000Y-93900016D01*
X127460000Y-89300000D02*
X127460000Y-91740000D01*
X131900000Y-88000000D02*
X137200000Y-93300000D01*
X130995002Y-85100000D02*
X131900000Y-86004998D01*
X136750000Y-101550000D02*
X136350000Y-101550000D01*
X131900000Y-86004998D02*
X131900000Y-88000000D01*
X127460000Y-86300000D02*
X128660000Y-85100000D01*
X128660000Y-85100000D02*
X130995002Y-85100000D01*
X137200000Y-93300000D02*
X137200000Y-101100000D01*
X137200000Y-101100000D02*
X136750000Y-101550000D01*
G04 #@! TA.AperFunction,Conductor*
G36*
X148283621Y-84528502D02*
G01*
X148330114Y-84582158D01*
X148341500Y-84634500D01*
X148341500Y-105365500D01*
X148321498Y-105433621D01*
X148267842Y-105480114D01*
X148215500Y-105491500D01*
X123483628Y-105491500D01*
X123415507Y-105471498D01*
X123369014Y-105417842D01*
X123358107Y-105376482D01*
X123354144Y-105331186D01*
X123346972Y-105249207D01*
X123301300Y-105078755D01*
X123298977Y-105073773D01*
X123229049Y-104923811D01*
X123229046Y-104923806D01*
X123226723Y-104918824D01*
X123223567Y-104914316D01*
X123223563Y-104914310D01*
X123165768Y-104831770D01*
X123143080Y-104764497D01*
X123160365Y-104695636D01*
X123212135Y-104647052D01*
X123268981Y-104633500D01*
X125392853Y-104633500D01*
X125436561Y-104641838D01*
X125439941Y-104643696D01*
X125458075Y-104648352D01*
X125459563Y-104648734D01*
X125478268Y-104655138D01*
X125496856Y-104663182D01*
X125504679Y-104664421D01*
X125504689Y-104664424D01*
X125540525Y-104670100D01*
X125552145Y-104672506D01*
X125583960Y-104680674D01*
X125594971Y-104683501D01*
X125615225Y-104683501D01*
X125634935Y-104685052D01*
X125654944Y-104688221D01*
X125662836Y-104687475D01*
X125681581Y-104685703D01*
X125698963Y-104684060D01*
X125710820Y-104683501D01*
X136246232Y-104683501D01*
X136257415Y-104684028D01*
X136264908Y-104685703D01*
X136272834Y-104685454D01*
X136272835Y-104685454D01*
X136332985Y-104683563D01*
X136336944Y-104683501D01*
X136364855Y-104683501D01*
X136368790Y-104683004D01*
X136368855Y-104682996D01*
X136380692Y-104682063D01*
X136412950Y-104681049D01*
X136416969Y-104680923D01*
X136424888Y-104680674D01*
X136444342Y-104675022D01*
X136463699Y-104671014D01*
X136475929Y-104669469D01*
X136475930Y-104669469D01*
X136483796Y-104668475D01*
X136491167Y-104665556D01*
X136491169Y-104665556D01*
X136524911Y-104652197D01*
X136536141Y-104648352D01*
X136570982Y-104638230D01*
X136570983Y-104638230D01*
X136578592Y-104636019D01*
X136585411Y-104631986D01*
X136585416Y-104631984D01*
X136596027Y-104625708D01*
X136613775Y-104617013D01*
X136632616Y-104609553D01*
X136668386Y-104583565D01*
X136678306Y-104577049D01*
X136709534Y-104558581D01*
X136709537Y-104558579D01*
X136716361Y-104554543D01*
X136730685Y-104540219D01*
X136745712Y-104527384D01*
X136762106Y-104515473D01*
X136772706Y-104502660D01*
X136786625Y-104485836D01*
X136791855Y-104479903D01*
X136803645Y-104467347D01*
X136806403Y-104464502D01*
X136826135Y-104444770D01*
X136828615Y-104441573D01*
X136836320Y-104432551D01*
X136861159Y-104406100D01*
X136866586Y-104400321D01*
X136870405Y-104393375D01*
X136870407Y-104393372D01*
X136876348Y-104382566D01*
X136887199Y-104366047D01*
X136894756Y-104356304D01*
X136899614Y-104350041D01*
X136901918Y-104344717D01*
X136953119Y-104296909D01*
X137009681Y-104283500D01*
X137178134Y-104283500D01*
X137240316Y-104276745D01*
X137376705Y-104225615D01*
X137493261Y-104138261D01*
X137580615Y-104021705D01*
X137631745Y-103885316D01*
X137638500Y-103823134D01*
X137638500Y-103076866D01*
X137631745Y-103014684D01*
X137580615Y-102878295D01*
X137493261Y-102761739D01*
X137376705Y-102674385D01*
X137240316Y-102623255D01*
X137233010Y-102622461D01*
X137171576Y-102587365D01*
X137138756Y-102524410D01*
X137145182Y-102453705D01*
X137188814Y-102397698D01*
X137232940Y-102377546D01*
X137240316Y-102376745D01*
X137376705Y-102325615D01*
X137493261Y-102238261D01*
X137580615Y-102121705D01*
X137631745Y-101985316D01*
X137638500Y-101923134D01*
X137638500Y-101609596D01*
X137658502Y-101541475D01*
X137671079Y-101525869D01*
X137670712Y-101525545D01*
X137673334Y-101522571D01*
X137676135Y-101519770D01*
X137678615Y-101516573D01*
X137686320Y-101507551D01*
X137711159Y-101481100D01*
X137716586Y-101475321D01*
X137720405Y-101468375D01*
X137720407Y-101468372D01*
X137726348Y-101457566D01*
X137737199Y-101441047D01*
X137744758Y-101431301D01*
X137749614Y-101425041D01*
X137752759Y-101417772D01*
X137752762Y-101417768D01*
X137767174Y-101384463D01*
X137772391Y-101373813D01*
X137793695Y-101335060D01*
X137798733Y-101315437D01*
X137805137Y-101296734D01*
X137810033Y-101285420D01*
X137810033Y-101285419D01*
X137813181Y-101278145D01*
X137814420Y-101270322D01*
X137814423Y-101270312D01*
X137820099Y-101234476D01*
X137822505Y-101222856D01*
X137831528Y-101187711D01*
X137831528Y-101187710D01*
X137833500Y-101180030D01*
X137833500Y-101159776D01*
X137835051Y-101140065D01*
X137836980Y-101127886D01*
X137838220Y-101120057D01*
X137834059Y-101076038D01*
X137833500Y-101064181D01*
X137833500Y-93378767D01*
X137834027Y-93367584D01*
X137835702Y-93360091D01*
X137835018Y-93338309D01*
X137833562Y-93292001D01*
X137833500Y-93288043D01*
X137833500Y-93260144D01*
X137832996Y-93256153D01*
X137832063Y-93244311D01*
X137831815Y-93236393D01*
X137830674Y-93200111D01*
X137828462Y-93192497D01*
X137828461Y-93192492D01*
X137825023Y-93180659D01*
X137821012Y-93161295D01*
X137819467Y-93149064D01*
X137818474Y-93141203D01*
X137815557Y-93133836D01*
X137815556Y-93133831D01*
X137802198Y-93100092D01*
X137798354Y-93088865D01*
X137788230Y-93054022D01*
X137786018Y-93046407D01*
X137775707Y-93028972D01*
X137767012Y-93011224D01*
X137759552Y-92992383D01*
X137733564Y-92956613D01*
X137727048Y-92946693D01*
X137708580Y-92915465D01*
X137708578Y-92915462D01*
X137704542Y-92908638D01*
X137690221Y-92894317D01*
X137677380Y-92879283D01*
X137670131Y-92869306D01*
X137665472Y-92862893D01*
X137631395Y-92834702D01*
X137622616Y-92826712D01*
X132570405Y-87774500D01*
X132536379Y-87712188D01*
X132533500Y-87685405D01*
X132533500Y-86083761D01*
X132534027Y-86072577D01*
X132535701Y-86065089D01*
X132534719Y-86033828D01*
X132533562Y-85997031D01*
X132533500Y-85993073D01*
X132533500Y-85965142D01*
X132532994Y-85961136D01*
X132532061Y-85949290D01*
X132531971Y-85946407D01*
X132530673Y-85905108D01*
X132525022Y-85885656D01*
X132521014Y-85866304D01*
X132519468Y-85854066D01*
X132519467Y-85854064D01*
X132518474Y-85846201D01*
X132502194Y-85805084D01*
X132498359Y-85793883D01*
X132486018Y-85751404D01*
X132481985Y-85744585D01*
X132481983Y-85744580D01*
X132475707Y-85733969D01*
X132467010Y-85716219D01*
X132459552Y-85697381D01*
X132433571Y-85661621D01*
X132427053Y-85651699D01*
X132408578Y-85620458D01*
X132408574Y-85620453D01*
X132404542Y-85613635D01*
X132390218Y-85599311D01*
X132377376Y-85584276D01*
X132365472Y-85567891D01*
X132331406Y-85539709D01*
X132322627Y-85531720D01*
X131514502Y-84723595D01*
X131480476Y-84661283D01*
X131485541Y-84590468D01*
X131528088Y-84533632D01*
X131594608Y-84508821D01*
X131603597Y-84508500D01*
X148215500Y-84508500D01*
X148283621Y-84528502D01*
G37*
G04 #@! TD.AperFunction*
G04 #@! TA.AperFunction,Conductor*
G36*
X134696121Y-99541002D02*
G01*
X134742614Y-99594658D01*
X134754000Y-99647000D01*
X134754000Y-99903000D01*
X134733998Y-99971121D01*
X134680342Y-100017614D01*
X134628000Y-100029000D01*
X131572115Y-100029000D01*
X131556876Y-100033475D01*
X131555671Y-100034865D01*
X131554000Y-100042548D01*
X131554000Y-100789885D01*
X131558475Y-100805124D01*
X131559865Y-100806329D01*
X131567548Y-100808000D01*
X131583766Y-100808000D01*
X131590282Y-100807663D01*
X131684132Y-100797925D01*
X131697528Y-100795032D01*
X131848953Y-100744512D01*
X131862115Y-100738347D01*
X131997492Y-100654574D01*
X132008892Y-100645539D01*
X132010924Y-100643503D01*
X132012655Y-100642556D01*
X132014627Y-100640993D01*
X132014895Y-100641331D01*
X132073208Y-100609426D01*
X132144028Y-100614432D01*
X132189113Y-100643352D01*
X132192129Y-100646363D01*
X132203540Y-100655375D01*
X132339063Y-100738912D01*
X132352240Y-100745056D01*
X132380393Y-100754394D01*
X132438753Y-100794824D01*
X132465990Y-100860388D01*
X132453457Y-100930270D01*
X132441552Y-100949552D01*
X132425214Y-100971352D01*
X132416676Y-100986946D01*
X132371522Y-101107394D01*
X132367895Y-101122649D01*
X132362369Y-101173514D01*
X132362000Y-101180328D01*
X132362000Y-101277885D01*
X132366475Y-101293124D01*
X132367865Y-101294329D01*
X132375548Y-101296000D01*
X133778000Y-101296000D01*
X133846121Y-101316002D01*
X133892614Y-101369658D01*
X133904000Y-101422000D01*
X133904000Y-101540500D01*
X133883998Y-101608621D01*
X133830342Y-101655114D01*
X133778000Y-101666500D01*
X132821866Y-101666500D01*
X132759684Y-101673255D01*
X132623295Y-101724385D01*
X132568741Y-101765271D01*
X132550655Y-101778826D01*
X132484149Y-101803674D01*
X132475090Y-101804000D01*
X132380116Y-101804000D01*
X132364877Y-101808475D01*
X132363672Y-101809865D01*
X132362001Y-101817548D01*
X132362001Y-101919669D01*
X132362371Y-101926490D01*
X132367895Y-101977349D01*
X132372035Y-101994764D01*
X132372034Y-102053058D01*
X132371029Y-102057284D01*
X132368255Y-102064684D01*
X132361500Y-102126866D01*
X132361500Y-102873134D01*
X132368255Y-102935316D01*
X132371029Y-102942715D01*
X132371775Y-102945854D01*
X132371775Y-103004146D01*
X132371029Y-103007285D01*
X132368255Y-103014684D01*
X132361500Y-103076866D01*
X132361500Y-103290501D01*
X132341498Y-103358622D01*
X132287842Y-103405115D01*
X132235500Y-103416501D01*
X128072000Y-103416501D01*
X128003879Y-103396499D01*
X127957386Y-103342843D01*
X127946000Y-103290501D01*
X127946000Y-103047000D01*
X127966002Y-102978879D01*
X128019658Y-102932386D01*
X128072000Y-102921000D01*
X130764885Y-102921000D01*
X130780124Y-102916525D01*
X130781329Y-102915135D01*
X130783000Y-102907452D01*
X130783000Y-102841234D01*
X130782663Y-102834718D01*
X130772925Y-102740868D01*
X130770032Y-102727472D01*
X130719512Y-102576047D01*
X130713347Y-102562885D01*
X130629574Y-102427508D01*
X130620536Y-102416105D01*
X130593860Y-102389475D01*
X130559781Y-102327193D01*
X130564784Y-102256373D01*
X130593705Y-102211285D01*
X130621758Y-102183183D01*
X130626929Y-102178003D01*
X130657202Y-102128891D01*
X130714369Y-102036150D01*
X130714370Y-102036148D01*
X130718209Y-102029920D01*
X130772974Y-101864809D01*
X130783500Y-101762072D01*
X130783500Y-101087928D01*
X130783163Y-101084678D01*
X130773419Y-100990765D01*
X130773418Y-100990761D01*
X130772707Y-100983907D01*
X130770526Y-100977370D01*
X130770525Y-100977365D01*
X130764685Y-100959860D01*
X130762101Y-100888910D01*
X130798286Y-100827826D01*
X130861750Y-100796003D01*
X130910624Y-100796785D01*
X130917135Y-100798181D01*
X131009770Y-100807672D01*
X131016185Y-100808000D01*
X131027885Y-100808000D01*
X131043124Y-100803525D01*
X131044329Y-100802135D01*
X131046000Y-100794452D01*
X131046000Y-99647000D01*
X131066002Y-99578879D01*
X131119658Y-99532386D01*
X131172000Y-99521000D01*
X134628000Y-99521000D01*
X134696121Y-99541002D01*
G37*
G04 #@! TD.AperFunction*
G04 #@! TA.AperFunction,Conductor*
G36*
X125893016Y-94683002D02*
G01*
X125905238Y-94690847D01*
X125967926Y-94736393D01*
X126005383Y-94763607D01*
X126043248Y-94791118D01*
X126049276Y-94793802D01*
X126049278Y-94793803D01*
X126107862Y-94819886D01*
X126217712Y-94868794D01*
X126311112Y-94888647D01*
X126398056Y-94907128D01*
X126398061Y-94907128D01*
X126404513Y-94908500D01*
X126460406Y-94908500D01*
X126528527Y-94928502D01*
X126549501Y-94945405D01*
X129465000Y-97860904D01*
X129499026Y-97923216D01*
X129493961Y-97994031D01*
X129465000Y-98039094D01*
X129407742Y-98096352D01*
X129399462Y-98103887D01*
X129392982Y-98108000D01*
X129361053Y-98142001D01*
X129346357Y-98157651D01*
X129343602Y-98160493D01*
X129323865Y-98180230D01*
X129321385Y-98183427D01*
X129313682Y-98192447D01*
X129283414Y-98224679D01*
X129279595Y-98231625D01*
X129279593Y-98231628D01*
X129273652Y-98242434D01*
X129262801Y-98258953D01*
X129250386Y-98274959D01*
X129247241Y-98282228D01*
X129247238Y-98282232D01*
X129232826Y-98315537D01*
X129227609Y-98326187D01*
X129206305Y-98364940D01*
X129204334Y-98372615D01*
X129204334Y-98372616D01*
X129201267Y-98384562D01*
X129194863Y-98403266D01*
X129186819Y-98421855D01*
X129185580Y-98429678D01*
X129185577Y-98429688D01*
X129179901Y-98465524D01*
X129177495Y-98477144D01*
X129166500Y-98519970D01*
X129166500Y-98540224D01*
X129164949Y-98559934D01*
X129161780Y-98579943D01*
X129162526Y-98587835D01*
X129165941Y-98623961D01*
X129166500Y-98635819D01*
X129166500Y-100435036D01*
X129146498Y-100503157D01*
X129106804Y-100542179D01*
X129095969Y-100548884D01*
X129089077Y-100555788D01*
X129087613Y-100556589D01*
X129085062Y-100558611D01*
X129084716Y-100558174D01*
X129026796Y-100589866D01*
X128955976Y-100584863D01*
X128910890Y-100555944D01*
X128908184Y-100553243D01*
X128903003Y-100548071D01*
X128896772Y-100544230D01*
X128761150Y-100460631D01*
X128761148Y-100460630D01*
X128754920Y-100456791D01*
X128589809Y-100402026D01*
X128582973Y-100401326D01*
X128582970Y-100401325D01*
X128531474Y-100396049D01*
X128487072Y-100391500D01*
X127912928Y-100391500D01*
X127909682Y-100391837D01*
X127909678Y-100391837D01*
X127815765Y-100401581D01*
X127815761Y-100401582D01*
X127808907Y-100402293D01*
X127802371Y-100404474D01*
X127802369Y-100404474D01*
X127710764Y-100435036D01*
X127643893Y-100457346D01*
X127495969Y-100548884D01*
X127490796Y-100554066D01*
X127378242Y-100666816D01*
X127378238Y-100666821D01*
X127373071Y-100671997D01*
X127369231Y-100678227D01*
X127369230Y-100678228D01*
X127291996Y-100803525D01*
X127281791Y-100820080D01*
X127227026Y-100985191D01*
X127216500Y-101087928D01*
X127216500Y-101460406D01*
X127196498Y-101528527D01*
X127179595Y-101549501D01*
X125399500Y-103329595D01*
X125337188Y-103363621D01*
X125310405Y-103366500D01*
X122614595Y-103366500D01*
X122546474Y-103346498D01*
X122525499Y-103329595D01*
X122303647Y-103107742D01*
X122296113Y-103099463D01*
X122292000Y-103092982D01*
X122242348Y-103046356D01*
X122239507Y-103043602D01*
X122219770Y-103023865D01*
X122216573Y-103021385D01*
X122207551Y-103013680D01*
X122181100Y-102988841D01*
X122175321Y-102983414D01*
X122168375Y-102979595D01*
X122168372Y-102979593D01*
X122157566Y-102973652D01*
X122141047Y-102962801D01*
X122140583Y-102962441D01*
X122125041Y-102950386D01*
X122117772Y-102947241D01*
X122117768Y-102947238D01*
X122084463Y-102932826D01*
X122073813Y-102927609D01*
X122035060Y-102906305D01*
X122015437Y-102901267D01*
X121996734Y-102894863D01*
X121985420Y-102889967D01*
X121985419Y-102889967D01*
X121978145Y-102886819D01*
X121970320Y-102885580D01*
X121970318Y-102885579D01*
X121963707Y-102884532D01*
X121899554Y-102854119D01*
X121862027Y-102793851D01*
X121858154Y-102773686D01*
X121857637Y-102768919D01*
X121857059Y-102763603D01*
X121857060Y-102736393D01*
X121858131Y-102726535D01*
X121858132Y-102726525D01*
X121858500Y-102723134D01*
X121858500Y-102276866D01*
X121858132Y-102273475D01*
X121858131Y-102273465D01*
X121857060Y-102263607D01*
X121857060Y-102236393D01*
X121858131Y-102226535D01*
X121858132Y-102226525D01*
X121858500Y-102223134D01*
X121858500Y-101776866D01*
X121858132Y-101773475D01*
X121858131Y-101773465D01*
X121857060Y-101763607D01*
X121857060Y-101736393D01*
X121858131Y-101726535D01*
X121858132Y-101726525D01*
X121858500Y-101723134D01*
X121858500Y-101276866D01*
X121858132Y-101273475D01*
X121858131Y-101273465D01*
X121857060Y-101263607D01*
X121857060Y-101236393D01*
X121858131Y-101226535D01*
X121858132Y-101226525D01*
X121858500Y-101223134D01*
X121858500Y-100776866D01*
X121858132Y-100773475D01*
X121858131Y-100773465D01*
X121857060Y-100763607D01*
X121857060Y-100736393D01*
X121858131Y-100726535D01*
X121858132Y-100726525D01*
X121858500Y-100723134D01*
X121858500Y-100276866D01*
X121856807Y-100261281D01*
X121856807Y-100234065D01*
X121857631Y-100226478D01*
X121858000Y-100219672D01*
X121858000Y-100193115D01*
X121853193Y-100176744D01*
X121819201Y-100127874D01*
X121800615Y-100078295D01*
X121795232Y-100071113D01*
X121790921Y-100063238D01*
X121793446Y-100061856D01*
X121773721Y-100009058D01*
X121788774Y-99939676D01*
X121792501Y-99933877D01*
X121795234Y-99928885D01*
X121800615Y-99921705D01*
X121817963Y-99875429D01*
X121840720Y-99837147D01*
X121856328Y-99819135D01*
X121857999Y-99811452D01*
X121857999Y-99780332D01*
X121857630Y-99773517D01*
X121856806Y-99765929D01*
X121856807Y-99738725D01*
X121858130Y-99726539D01*
X121858500Y-99723134D01*
X121858500Y-99708248D01*
X121878502Y-99640127D01*
X121932158Y-99593634D01*
X121941550Y-99590147D01*
X121945983Y-99588229D01*
X121953593Y-99586018D01*
X121960412Y-99581985D01*
X121960417Y-99581983D01*
X121971028Y-99575707D01*
X121988776Y-99567012D01*
X122007617Y-99559552D01*
X122043387Y-99533564D01*
X122053307Y-99527048D01*
X122084535Y-99508580D01*
X122084538Y-99508578D01*
X122091362Y-99504542D01*
X122105683Y-99490221D01*
X122120717Y-99477380D01*
X122130694Y-99470131D01*
X122137107Y-99465472D01*
X122165298Y-99431395D01*
X122173288Y-99422616D01*
X123192253Y-98403652D01*
X123200539Y-98396112D01*
X123207018Y-98392000D01*
X123253644Y-98342348D01*
X123256398Y-98339507D01*
X123276135Y-98319770D01*
X123278615Y-98316573D01*
X123286320Y-98307551D01*
X123311159Y-98281100D01*
X123316586Y-98275321D01*
X123320405Y-98268375D01*
X123320407Y-98268372D01*
X123326348Y-98257566D01*
X123337199Y-98241047D01*
X123337559Y-98240583D01*
X123349614Y-98225041D01*
X123352759Y-98217772D01*
X123352762Y-98217768D01*
X123367174Y-98184463D01*
X123372391Y-98173813D01*
X123393695Y-98135060D01*
X123398733Y-98115437D01*
X123405137Y-98096734D01*
X123410033Y-98085420D01*
X123410033Y-98085419D01*
X123413181Y-98078145D01*
X123414420Y-98070322D01*
X123414423Y-98070312D01*
X123420099Y-98034476D01*
X123422505Y-98022856D01*
X123431528Y-97987711D01*
X123431528Y-97987710D01*
X123433500Y-97980030D01*
X123433500Y-97959776D01*
X123435051Y-97940065D01*
X123436980Y-97927886D01*
X123438220Y-97920057D01*
X123434059Y-97876038D01*
X123433500Y-97864181D01*
X123433500Y-97172531D01*
X123453502Y-97104410D01*
X123470405Y-97083436D01*
X124992247Y-95561594D01*
X125000537Y-95554050D01*
X125007018Y-95549937D01*
X125053659Y-95500269D01*
X125056413Y-95497428D01*
X125076134Y-95477707D01*
X125078612Y-95474512D01*
X125086318Y-95465490D01*
X125111158Y-95439038D01*
X125116586Y-95433258D01*
X125126346Y-95415505D01*
X125137199Y-95398982D01*
X125144753Y-95389243D01*
X125149613Y-95382978D01*
X125167176Y-95342394D01*
X125172383Y-95331764D01*
X125193695Y-95292997D01*
X125195666Y-95285320D01*
X125195668Y-95285315D01*
X125198732Y-95273379D01*
X125205138Y-95254667D01*
X125210034Y-95243354D01*
X125213181Y-95236082D01*
X125220097Y-95192418D01*
X125222504Y-95180797D01*
X125231528Y-95145648D01*
X125231528Y-95145647D01*
X125233500Y-95137967D01*
X125233500Y-95117706D01*
X125235051Y-95097995D01*
X125236979Y-95085822D01*
X125238219Y-95077994D01*
X125234059Y-95033983D01*
X125233500Y-95022126D01*
X125233500Y-94934500D01*
X125253502Y-94866379D01*
X125307158Y-94819886D01*
X125359500Y-94808500D01*
X125395487Y-94808500D01*
X125401939Y-94807128D01*
X125401944Y-94807128D01*
X125495521Y-94787237D01*
X125582288Y-94768794D01*
X125588319Y-94766109D01*
X125750722Y-94693803D01*
X125750724Y-94693802D01*
X125756752Y-94691118D01*
X125762093Y-94687237D01*
X125767811Y-94683936D01*
X125769308Y-94686528D01*
X125823846Y-94667000D01*
X125893016Y-94683002D01*
G37*
G04 #@! TD.AperFunction*
G04 #@! TA.AperFunction,Conductor*
G36*
X132303029Y-89953502D02*
G01*
X132324003Y-89970405D01*
X135629595Y-93275997D01*
X135663621Y-93338309D01*
X135666500Y-93365092D01*
X135666500Y-97388974D01*
X135646498Y-97457095D01*
X135592842Y-97503588D01*
X135522568Y-97513692D01*
X135457988Y-97484198D01*
X135423320Y-97432355D01*
X135423077Y-97432469D01*
X135422330Y-97430874D01*
X135420977Y-97428851D01*
X135419975Y-97425846D01*
X135419970Y-97425836D01*
X135417654Y-97418893D01*
X135326116Y-97270969D01*
X135320934Y-97265796D01*
X135208184Y-97153242D01*
X135208179Y-97153238D01*
X135203003Y-97148071D01*
X135132172Y-97104410D01*
X135061150Y-97060631D01*
X135061148Y-97060630D01*
X135054920Y-97056791D01*
X134889809Y-97002026D01*
X134882973Y-97001326D01*
X134882970Y-97001325D01*
X134831474Y-96996049D01*
X134787072Y-96991500D01*
X134212928Y-96991500D01*
X134209682Y-96991837D01*
X134209678Y-96991837D01*
X134115765Y-97001581D01*
X134115761Y-97001582D01*
X134108907Y-97002293D01*
X134102371Y-97004474D01*
X134102369Y-97004474D01*
X134065364Y-97016820D01*
X133943893Y-97057346D01*
X133937661Y-97061202D01*
X133937662Y-97061202D01*
X133803490Y-97144230D01*
X133795969Y-97148884D01*
X133789077Y-97155788D01*
X133787613Y-97156589D01*
X133785062Y-97158611D01*
X133784716Y-97158174D01*
X133726796Y-97189866D01*
X133655976Y-97184863D01*
X133610890Y-97155944D01*
X133608184Y-97153243D01*
X133608183Y-97153242D01*
X133603003Y-97148071D01*
X133532172Y-97104410D01*
X133461150Y-97060631D01*
X133461148Y-97060630D01*
X133454920Y-97056791D01*
X133289809Y-97002026D01*
X133282973Y-97001326D01*
X133282970Y-97001325D01*
X133231474Y-96996049D01*
X133187072Y-96991500D01*
X132612928Y-96991500D01*
X132609682Y-96991837D01*
X132609678Y-96991837D01*
X132515765Y-97001581D01*
X132515761Y-97001582D01*
X132508907Y-97002293D01*
X132502371Y-97004474D01*
X132502369Y-97004474D01*
X132465364Y-97016820D01*
X132343893Y-97057346D01*
X132337661Y-97061202D01*
X132337662Y-97061202D01*
X132203490Y-97144230D01*
X132195969Y-97148884D01*
X132189077Y-97155788D01*
X132187613Y-97156589D01*
X132185062Y-97158611D01*
X132184716Y-97158174D01*
X132126796Y-97189866D01*
X132055976Y-97184863D01*
X132010890Y-97155944D01*
X132008184Y-97153243D01*
X132008183Y-97153242D01*
X132003003Y-97148071D01*
X131932172Y-97104410D01*
X131861150Y-97060631D01*
X131861148Y-97060630D01*
X131854920Y-97056791D01*
X131689809Y-97002026D01*
X131682973Y-97001326D01*
X131682970Y-97001325D01*
X131631474Y-96996049D01*
X131587072Y-96991500D01*
X131012928Y-96991500D01*
X131009682Y-96991837D01*
X131009678Y-96991837D01*
X130915765Y-97001581D01*
X130915761Y-97001582D01*
X130908907Y-97002293D01*
X130902371Y-97004474D01*
X130902369Y-97004474D01*
X130865364Y-97016820D01*
X130743893Y-97057346D01*
X130737661Y-97061202D01*
X130737662Y-97061202D01*
X130649198Y-97115945D01*
X130580746Y-97134783D01*
X130512976Y-97113622D01*
X130493800Y-97097896D01*
X127447122Y-94051217D01*
X127413096Y-93988905D01*
X127410907Y-93975292D01*
X127394232Y-93816635D01*
X127394232Y-93816633D01*
X127393542Y-93810072D01*
X127334527Y-93628444D01*
X127239040Y-93463056D01*
X127126718Y-93338309D01*
X127115675Y-93326045D01*
X127115674Y-93326044D01*
X127111253Y-93321134D01*
X127068440Y-93290028D01*
X127035716Y-93266253D01*
X126992362Y-93210031D01*
X126986287Y-93139294D01*
X127020682Y-93075222D01*
X127852247Y-92243657D01*
X127860537Y-92236113D01*
X127867018Y-92232000D01*
X127913659Y-92182332D01*
X127916413Y-92179491D01*
X127936134Y-92159770D01*
X127938612Y-92156575D01*
X127946318Y-92147553D01*
X127971158Y-92121101D01*
X127976586Y-92115321D01*
X127986346Y-92097568D01*
X127997199Y-92081045D01*
X128004753Y-92071306D01*
X128009613Y-92065041D01*
X128027176Y-92024457D01*
X128032383Y-92013827D01*
X128053695Y-91975060D01*
X128055666Y-91967383D01*
X128055668Y-91967378D01*
X128058732Y-91955442D01*
X128065138Y-91936730D01*
X128070033Y-91925419D01*
X128073181Y-91918145D01*
X128074421Y-91910317D01*
X128074423Y-91910310D01*
X128080099Y-91874476D01*
X128082505Y-91862856D01*
X128091528Y-91827711D01*
X128091528Y-91827710D01*
X128093500Y-91820030D01*
X128093500Y-91799776D01*
X128095051Y-91780065D01*
X128096980Y-91767886D01*
X128098220Y-91760057D01*
X128094059Y-91716038D01*
X128093500Y-91704181D01*
X128093500Y-90784500D01*
X128113502Y-90716379D01*
X128167158Y-90669886D01*
X128219500Y-90658500D01*
X128358134Y-90658500D01*
X128420316Y-90651745D01*
X128556705Y-90600615D01*
X128673261Y-90513261D01*
X128760615Y-90396705D01*
X128811745Y-90260316D01*
X128818500Y-90198134D01*
X128818500Y-90059500D01*
X128838502Y-89991379D01*
X128892158Y-89944886D01*
X128944500Y-89933500D01*
X132234908Y-89933500D01*
X132303029Y-89953502D01*
G37*
G04 #@! TD.AperFunction*
G04 #@! TA.AperFunction,Conductor*
G36*
X122067012Y-91863370D02*
G01*
X122073595Y-91869499D01*
X122952878Y-92748782D01*
X122986904Y-92811094D01*
X122989092Y-92824703D01*
X123006458Y-92989928D01*
X123065473Y-93171556D01*
X123068776Y-93177278D01*
X123068777Y-93177279D01*
X123132129Y-93287008D01*
X123148867Y-93356004D01*
X123132129Y-93413008D01*
X123103234Y-93463056D01*
X123065473Y-93528460D01*
X123006458Y-93710088D01*
X123005768Y-93716649D01*
X123005768Y-93716651D01*
X122996609Y-93803794D01*
X122986496Y-93900016D01*
X123006458Y-94089944D01*
X123065473Y-94271572D01*
X123068777Y-94277295D01*
X123071461Y-94283323D01*
X123068754Y-94284528D01*
X123082462Y-94340963D01*
X123059260Y-94408061D01*
X123045698Y-94424098D01*
X122073595Y-95396201D01*
X122011283Y-95430227D01*
X121940468Y-95425162D01*
X121883632Y-95382615D01*
X121858821Y-95316095D01*
X121858500Y-95307106D01*
X121858500Y-95276866D01*
X121858132Y-95273475D01*
X121858131Y-95273465D01*
X121857060Y-95263607D01*
X121857060Y-95236393D01*
X121858131Y-95226535D01*
X121858132Y-95226525D01*
X121858500Y-95223134D01*
X121858500Y-94776866D01*
X121858132Y-94773475D01*
X121858131Y-94773465D01*
X121857060Y-94763607D01*
X121857060Y-94736393D01*
X121858131Y-94726535D01*
X121858132Y-94726525D01*
X121858500Y-94723134D01*
X121858500Y-94276866D01*
X121858132Y-94273475D01*
X121858131Y-94273465D01*
X121857060Y-94263607D01*
X121857060Y-94236393D01*
X121858131Y-94226535D01*
X121858132Y-94226525D01*
X121858500Y-94223134D01*
X121858500Y-93776866D01*
X121858132Y-93773475D01*
X121858131Y-93773465D01*
X121857060Y-93763607D01*
X121857060Y-93736393D01*
X121858131Y-93726535D01*
X121858132Y-93726525D01*
X121858500Y-93723134D01*
X121858500Y-93276866D01*
X121858132Y-93273475D01*
X121858131Y-93273465D01*
X121857060Y-93263607D01*
X121857060Y-93236393D01*
X121858131Y-93226535D01*
X121858132Y-93226525D01*
X121858500Y-93223134D01*
X121858500Y-92776866D01*
X121858132Y-92773475D01*
X121858131Y-92773465D01*
X121857060Y-92763607D01*
X121857060Y-92736393D01*
X121858131Y-92726535D01*
X121858132Y-92726525D01*
X121858500Y-92723134D01*
X121858500Y-92276866D01*
X121858132Y-92273475D01*
X121858131Y-92273465D01*
X121857060Y-92263607D01*
X121857060Y-92236393D01*
X121858131Y-92226535D01*
X121858132Y-92226525D01*
X121858500Y-92223134D01*
X121858500Y-91958594D01*
X121878502Y-91890473D01*
X121932158Y-91843980D01*
X122002432Y-91833876D01*
X122067012Y-91863370D01*
G37*
G04 #@! TD.AperFunction*
G04 #@! TA.AperFunction,Conductor*
G36*
X128119526Y-84528502D02*
G01*
X128166019Y-84582158D01*
X128176123Y-84652432D01*
X128146629Y-84717012D01*
X128140500Y-84723595D01*
X127917345Y-84946750D01*
X127855033Y-84980776D01*
X127806154Y-84981702D01*
X127593373Y-84943800D01*
X127593367Y-84943799D01*
X127588284Y-84942894D01*
X127514452Y-84941992D01*
X127370081Y-84940228D01*
X127370079Y-84940228D01*
X127364911Y-84940165D01*
X127144091Y-84973955D01*
X126931756Y-85043357D01*
X126733607Y-85146507D01*
X126729474Y-85149610D01*
X126729471Y-85149612D01*
X126622905Y-85229624D01*
X126554965Y-85280635D01*
X126400629Y-85442138D01*
X126397715Y-85446410D01*
X126397714Y-85446411D01*
X126392504Y-85454049D01*
X126298198Y-85592297D01*
X126292898Y-85600066D01*
X126237987Y-85645069D01*
X126167462Y-85653240D01*
X126103715Y-85621986D01*
X126083018Y-85597502D01*
X126002426Y-85472926D01*
X125996136Y-85464757D01*
X125852806Y-85307240D01*
X125845273Y-85300215D01*
X125678139Y-85168222D01*
X125669552Y-85162517D01*
X125483117Y-85059599D01*
X125473705Y-85055369D01*
X125272959Y-84984280D01*
X125262988Y-84981646D01*
X125191837Y-84968972D01*
X125178540Y-84970432D01*
X125174000Y-84984989D01*
X125174000Y-87618515D01*
X125178265Y-87633041D01*
X125178264Y-87704038D01*
X125146465Y-87757631D01*
X124207736Y-88696359D01*
X124199462Y-88703888D01*
X124192982Y-88708000D01*
X124187557Y-88713777D01*
X124146357Y-88757651D01*
X124143602Y-88760493D01*
X124123865Y-88780230D01*
X124121385Y-88783427D01*
X124113682Y-88792447D01*
X124083414Y-88824679D01*
X124079595Y-88831625D01*
X124079593Y-88831628D01*
X124073652Y-88842434D01*
X124062801Y-88858953D01*
X124050386Y-88874959D01*
X124047241Y-88882228D01*
X124047238Y-88882232D01*
X124032826Y-88915537D01*
X124027609Y-88926187D01*
X124006305Y-88964940D01*
X124004334Y-88972615D01*
X124004334Y-88972616D01*
X124001267Y-88984562D01*
X123994863Y-89003266D01*
X123986819Y-89021855D01*
X123985580Y-89029678D01*
X123985577Y-89029688D01*
X123979901Y-89065524D01*
X123977495Y-89077144D01*
X123966500Y-89119970D01*
X123966500Y-89140224D01*
X123964949Y-89159934D01*
X123961780Y-89179943D01*
X123962526Y-89187835D01*
X123965941Y-89223961D01*
X123966500Y-89235819D01*
X123966500Y-91666405D01*
X123946498Y-91734526D01*
X123892842Y-91781019D01*
X123822568Y-91791123D01*
X123757988Y-91761629D01*
X123751404Y-91755500D01*
X122970404Y-90974499D01*
X122936379Y-90912187D01*
X122933500Y-90885404D01*
X122933500Y-86567966D01*
X123588257Y-86567966D01*
X123618565Y-86702446D01*
X123621645Y-86712275D01*
X123701770Y-86909603D01*
X123706413Y-86918794D01*
X123817694Y-87100388D01*
X123823777Y-87108699D01*
X123963213Y-87269667D01*
X123970580Y-87276883D01*
X124134434Y-87412916D01*
X124142881Y-87418831D01*
X124326756Y-87526279D01*
X124336042Y-87530729D01*
X124535001Y-87606703D01*
X124544899Y-87609579D01*
X124648250Y-87630606D01*
X124662299Y-87629410D01*
X124666000Y-87619065D01*
X124666000Y-86572115D01*
X124661525Y-86556876D01*
X124660135Y-86555671D01*
X124652452Y-86554000D01*
X123603225Y-86554000D01*
X123589694Y-86557973D01*
X123588257Y-86567966D01*
X122933500Y-86567966D01*
X122933500Y-86278768D01*
X122934027Y-86267585D01*
X122935702Y-86260092D01*
X122935443Y-86251857D01*
X122936933Y-86228186D01*
X122936980Y-86227890D01*
X122936980Y-86227885D01*
X122938220Y-86220057D01*
X122934059Y-86176038D01*
X122933500Y-86164181D01*
X122933500Y-86160144D01*
X122932996Y-86156153D01*
X122932063Y-86144311D01*
X122930923Y-86108030D01*
X122930923Y-86108029D01*
X122930674Y-86100111D01*
X122928376Y-86092202D01*
X122923932Y-86068904D01*
X122923903Y-86068596D01*
X122923903Y-86068594D01*
X122923157Y-86060708D01*
X122920558Y-86053489D01*
X122920455Y-86052896D01*
X122919613Y-86049393D01*
X122919436Y-86048818D01*
X122918474Y-86041203D01*
X122915694Y-86034183D01*
X123584389Y-86034183D01*
X123585912Y-86042607D01*
X123598292Y-86046000D01*
X124647885Y-86046000D01*
X124663124Y-86041525D01*
X124664329Y-86040135D01*
X124666000Y-86032452D01*
X124666000Y-84983102D01*
X124662082Y-84969758D01*
X124647806Y-84967771D01*
X124609324Y-84973660D01*
X124599288Y-84976051D01*
X124396868Y-85042212D01*
X124387359Y-85046209D01*
X124198463Y-85144542D01*
X124189738Y-85150036D01*
X124019433Y-85277905D01*
X124011726Y-85284748D01*
X123864590Y-85438717D01*
X123858104Y-85446727D01*
X123738098Y-85622649D01*
X123733000Y-85631623D01*
X123643338Y-85824783D01*
X123639775Y-85834470D01*
X123584389Y-86034183D01*
X122915694Y-86034183D01*
X122913238Y-86027979D01*
X122902198Y-86000092D01*
X122898354Y-85988865D01*
X122891461Y-85965142D01*
X122886018Y-85946407D01*
X122881982Y-85939583D01*
X122881980Y-85939578D01*
X122881823Y-85939312D01*
X122871733Y-85917868D01*
X122871627Y-85917574D01*
X122871623Y-85917565D01*
X122868939Y-85910111D01*
X122864627Y-85903765D01*
X122864384Y-85903228D01*
X122862685Y-85900018D01*
X122862375Y-85899512D01*
X122859552Y-85892383D01*
X122833564Y-85856613D01*
X122827048Y-85846693D01*
X122808576Y-85815458D01*
X122808573Y-85815455D01*
X122804542Y-85808638D01*
X122798940Y-85803036D01*
X122798938Y-85803033D01*
X122798712Y-85802807D01*
X122783609Y-85784550D01*
X122783430Y-85784287D01*
X122783426Y-85784283D01*
X122778972Y-85777729D01*
X122773218Y-85772656D01*
X122772849Y-85772196D01*
X122770400Y-85769505D01*
X122769981Y-85769099D01*
X122765472Y-85762893D01*
X122731403Y-85734708D01*
X122722627Y-85726722D01*
X122704795Y-85708890D01*
X122670769Y-85646581D01*
X122675832Y-85575765D01*
X122718377Y-85518928D01*
X122740639Y-85505599D01*
X122851189Y-85454049D01*
X122851194Y-85454046D01*
X122856176Y-85451723D01*
X122936874Y-85395217D01*
X122996216Y-85353666D01*
X122996219Y-85353664D01*
X123000727Y-85350507D01*
X123125507Y-85225727D01*
X123226723Y-85081176D01*
X123229046Y-85076194D01*
X123229049Y-85076189D01*
X123298977Y-84926227D01*
X123298978Y-84926226D01*
X123301300Y-84921245D01*
X123317841Y-84859515D01*
X123345548Y-84756108D01*
X123345548Y-84756107D01*
X123346972Y-84750793D01*
X123358107Y-84623517D01*
X123383970Y-84557400D01*
X123441474Y-84515761D01*
X123483628Y-84508500D01*
X128051405Y-84508500D01*
X128119526Y-84528502D01*
G37*
G04 #@! TD.AperFunction*
M02*
