G04 #@! TF.GenerationSoftware,KiCad,Pcbnew,5.1.4-3.fc30*
G04 #@! TF.CreationDate,2020-01-13T02:26:48-05:00*
G04 #@! TF.ProjectId,librem5-m2-breakout,6c696272-656d-4352-9d6d-322d62726561,v0.5.0*
G04 #@! TF.SameCoordinates,Original*
G04 #@! TF.FileFunction,Copper,L1,Top*
G04 #@! TF.FilePolarity,Positive*
%FSLAX46Y46*%
G04 Gerber Fmt 4.6, Leading zero omitted, Abs format (unit mm)*
G04 Created by KiCad (PCBNEW 5.1.4-3.fc30) date 2020-01-13 02:26:48*
%MOMM*%
%LPD*%
G04 APERTURE LIST*
%ADD10R,1.700000X1.700000*%
%ADD11O,1.700000X1.700000*%
%ADD12C,6.150000*%
%ADD13R,1.700000X0.350000*%
%ADD14C,0.800000*%
%ADD15C,0.250000*%
%ADD16C,0.254000*%
G04 APERTURE END LIST*
D10*
X130000000Y-86300000D03*
D11*
X127460000Y-86300000D03*
X124920000Y-86300000D03*
D10*
X127460000Y-89300000D03*
D12*
X148850000Y-95000000D03*
D13*
X120000000Y-104250000D03*
X120000000Y-103750000D03*
X120000000Y-103250000D03*
X120000000Y-102750000D03*
X120000000Y-102250000D03*
X120000000Y-101750000D03*
X120000000Y-99250000D03*
X120000000Y-98750000D03*
X120000000Y-96250000D03*
X120000000Y-95750000D03*
X120000000Y-95250000D03*
X120000000Y-94750000D03*
X120000000Y-94250000D03*
X120000000Y-93750000D03*
X120000000Y-93250000D03*
X120000000Y-92750000D03*
X120000000Y-92250000D03*
X120000000Y-91750000D03*
X120000000Y-91250000D03*
X120000000Y-90750000D03*
X120000000Y-90250000D03*
X120000000Y-89750000D03*
X120000000Y-89250000D03*
X120000000Y-88750000D03*
X120000000Y-88250000D03*
X120000000Y-87750000D03*
X120000000Y-87250000D03*
X120000000Y-86750000D03*
X120000000Y-86250000D03*
X120000000Y-85750000D03*
X120000000Y-101250000D03*
X120000000Y-100750000D03*
X120000000Y-100250000D03*
X120000000Y-99750000D03*
D14*
X122300000Y-86200000D03*
X126500000Y-94000000D03*
X123900000Y-92800000D03*
X123000000Y-103000016D03*
X122000000Y-93900000D03*
X131300000Y-102250000D03*
X123900000Y-93900016D03*
X125300000Y-93900000D03*
D15*
X125300000Y-92800000D02*
X124465685Y-92800000D01*
X124465685Y-92800000D02*
X123900000Y-92800000D01*
X126500000Y-94000000D02*
X125300000Y-92800000D01*
X123970000Y-87250000D02*
X124920000Y-86300000D01*
X120000000Y-87250000D02*
X123970000Y-87250000D01*
X122470000Y-88750000D02*
X124920000Y-86300000D01*
X120000000Y-88750000D02*
X122470000Y-88750000D01*
X124920000Y-86430000D02*
X124920000Y-86300000D01*
X120000000Y-90250000D02*
X121100000Y-90250000D01*
X124070001Y-85450001D02*
X124920000Y-86300000D01*
X121399999Y-85450001D02*
X124070001Y-85450001D01*
X120000000Y-85750000D02*
X121100000Y-85750000D01*
X121100000Y-85750000D02*
X121399999Y-85450001D01*
X121199990Y-90150010D02*
X121525000Y-89825000D01*
X120000000Y-91750000D02*
X121100000Y-91750000D01*
X121100000Y-91750000D02*
X121199990Y-91650010D01*
X121525000Y-89825000D02*
X124920000Y-86430000D01*
X121100000Y-90250000D02*
X121525000Y-89825000D01*
X120000000Y-93250000D02*
X121100000Y-93250000D01*
X121100000Y-93250000D02*
X121199990Y-93150010D01*
X121199990Y-91650010D02*
X121199990Y-91400010D01*
X121199990Y-91400010D02*
X121199990Y-90150010D01*
X121100000Y-94750000D02*
X121199990Y-94650010D01*
X120000000Y-94750000D02*
X121100000Y-94750000D01*
X121199990Y-93150010D02*
X121199990Y-92900010D01*
X121199990Y-92900010D02*
X121199990Y-91400010D01*
X120000000Y-96250000D02*
X121100000Y-96250000D01*
X121100000Y-96250000D02*
X121199990Y-96150010D01*
X121199990Y-94650010D02*
X121199990Y-94500010D01*
X121199990Y-94500010D02*
X121199990Y-92900010D01*
X121199990Y-94899990D02*
X121199990Y-94500010D01*
X121199990Y-96150010D02*
X121199990Y-94899990D01*
X120000000Y-102750000D02*
X122749984Y-102750000D01*
X122749984Y-102750000D02*
X123000000Y-103000016D01*
X121199990Y-94700010D02*
X122000000Y-93900000D01*
X121199990Y-94899990D02*
X121199990Y-94700010D01*
X123375000Y-104775000D02*
X124045000Y-104775000D01*
X124045000Y-104775000D02*
X125220000Y-104775000D01*
X120000000Y-104250000D02*
X122850000Y-104250000D01*
X122850000Y-104250000D02*
X123375000Y-104775000D01*
X141299990Y-102250000D02*
X148549990Y-95000000D01*
X131300000Y-102250000D02*
X141299990Y-102250000D01*
X125300000Y-93900000D02*
X123900016Y-93900000D01*
X123900016Y-93900000D02*
X123900000Y-93900016D01*
D16*
G36*
X148190000Y-105340000D02*
G01*
X123505057Y-105340000D01*
X123501311Y-105304360D01*
X123500450Y-105295617D01*
X123500362Y-105295325D01*
X123496173Y-105255473D01*
X123484140Y-105196854D01*
X123472936Y-105138116D01*
X123470272Y-105129294D01*
X123441416Y-105036075D01*
X123418238Y-104980937D01*
X123395825Y-104925463D01*
X123391498Y-104917327D01*
X123345085Y-104831489D01*
X123311645Y-104781913D01*
X123278881Y-104731844D01*
X123273057Y-104724703D01*
X123210855Y-104649514D01*
X123168406Y-104607361D01*
X123126561Y-104564629D01*
X123119460Y-104558755D01*
X123043839Y-104497079D01*
X122994034Y-104463988D01*
X122944650Y-104430174D01*
X122936544Y-104425792D01*
X122850383Y-104379980D01*
X122795091Y-104357191D01*
X122740102Y-104333622D01*
X122731299Y-104330897D01*
X122637881Y-104302692D01*
X122579174Y-104291067D01*
X122520684Y-104278635D01*
X122511530Y-104277673D01*
X122511524Y-104277672D01*
X122511519Y-104277672D01*
X122414402Y-104268150D01*
X122382419Y-104265000D01*
X121388284Y-104265000D01*
X121439502Y-104169180D01*
X121474525Y-104053725D01*
X121485000Y-104043250D01*
X121480514Y-104001738D01*
X121488072Y-103925000D01*
X121488072Y-103575000D01*
X121480685Y-103500000D01*
X121488072Y-103425000D01*
X121488072Y-103075000D01*
X121480514Y-102998262D01*
X121485000Y-102956750D01*
X121474525Y-102946275D01*
X121439502Y-102830820D01*
X121396302Y-102750000D01*
X121439502Y-102669180D01*
X121474525Y-102553725D01*
X121485000Y-102543250D01*
X121480514Y-102501738D01*
X121488072Y-102425000D01*
X121488072Y-102075000D01*
X121480685Y-102000000D01*
X121488072Y-101925000D01*
X121488072Y-101575000D01*
X121480685Y-101500000D01*
X121488072Y-101425000D01*
X121488072Y-101075000D01*
X121480685Y-101000000D01*
X121488072Y-100925000D01*
X121488072Y-100575000D01*
X121480685Y-100500000D01*
X121488072Y-100425000D01*
X121488072Y-100075000D01*
X121480685Y-100000000D01*
X121488072Y-99925000D01*
X121488072Y-99575000D01*
X121480685Y-99500000D01*
X121488072Y-99425000D01*
X121488072Y-99075000D01*
X121480685Y-99000000D01*
X121488072Y-98925000D01*
X121488072Y-98885000D01*
X121782419Y-98885000D01*
X121814991Y-98881792D01*
X121822782Y-98881792D01*
X121831947Y-98880829D01*
X121948317Y-98867776D01*
X122006834Y-98855337D01*
X122065512Y-98843719D01*
X122074315Y-98840994D01*
X122185933Y-98805586D01*
X122240904Y-98782024D01*
X122296216Y-98759227D01*
X122304322Y-98754844D01*
X122406937Y-98698431D01*
X122456298Y-98664632D01*
X122506118Y-98631533D01*
X122513218Y-98625659D01*
X122602922Y-98550389D01*
X122644767Y-98507659D01*
X122687223Y-98465498D01*
X122693047Y-98458357D01*
X122766422Y-98367097D01*
X122799178Y-98317041D01*
X122832629Y-98267447D01*
X122836955Y-98259310D01*
X122891206Y-98155536D01*
X122913608Y-98100087D01*
X122936794Y-98044931D01*
X122939457Y-98036109D01*
X122972519Y-97923775D01*
X122983724Y-97865034D01*
X122995757Y-97806417D01*
X122996656Y-97797246D01*
X123007269Y-97680628D01*
X123006851Y-97620811D01*
X123007269Y-97560994D01*
X123006370Y-97551823D01*
X122994130Y-97435365D01*
X122982098Y-97376753D01*
X122970893Y-97318008D01*
X122968229Y-97309186D01*
X122933602Y-97197324D01*
X122910416Y-97142168D01*
X122888014Y-97086719D01*
X122883688Y-97078582D01*
X122827993Y-96975575D01*
X122794557Y-96926005D01*
X122761785Y-96875923D01*
X122755960Y-96868782D01*
X122681318Y-96778556D01*
X122638884Y-96736418D01*
X122597022Y-96693669D01*
X122589921Y-96687796D01*
X122589918Y-96687793D01*
X122589914Y-96687791D01*
X122499176Y-96613785D01*
X122449376Y-96580698D01*
X122399993Y-96546884D01*
X122391891Y-96542505D01*
X122391887Y-96542502D01*
X122391883Y-96542500D01*
X122288493Y-96487527D01*
X122233234Y-96464751D01*
X122178205Y-96441165D01*
X122169402Y-96438441D01*
X122057301Y-96404596D01*
X121998628Y-96392979D01*
X121940111Y-96380540D01*
X121930946Y-96379577D01*
X121814405Y-96368150D01*
X121814402Y-96368150D01*
X121782419Y-96365000D01*
X121393250Y-96365000D01*
X121347725Y-96319475D01*
X121380537Y-96279494D01*
X121439502Y-96169180D01*
X121474525Y-96053725D01*
X121485000Y-96043250D01*
X121480514Y-96001738D01*
X121488072Y-95925000D01*
X121488072Y-95575000D01*
X121480685Y-95500000D01*
X121488072Y-95425000D01*
X121488072Y-95075000D01*
X121480514Y-94998262D01*
X121485000Y-94956750D01*
X121474525Y-94946275D01*
X121439502Y-94830820D01*
X121396302Y-94750000D01*
X121439502Y-94669180D01*
X121474525Y-94553725D01*
X121485000Y-94543250D01*
X121480514Y-94501738D01*
X121488072Y-94425000D01*
X121488072Y-94075000D01*
X121480685Y-93999999D01*
X121488072Y-93925000D01*
X121488072Y-93575000D01*
X121480514Y-93498262D01*
X121485000Y-93456750D01*
X121474525Y-93446275D01*
X121439502Y-93330820D01*
X121396302Y-93250000D01*
X121439502Y-93169180D01*
X121474525Y-93053725D01*
X121485000Y-93043250D01*
X121480514Y-93001738D01*
X121488072Y-92925000D01*
X121488072Y-92698061D01*
X122865000Y-92698061D01*
X122865000Y-92901939D01*
X122904774Y-93101898D01*
X122982795Y-93290256D01*
X123022720Y-93350008D01*
X122982795Y-93409760D01*
X122904774Y-93598118D01*
X122865000Y-93798077D01*
X122865000Y-94001955D01*
X122904774Y-94201914D01*
X122982795Y-94390272D01*
X123096063Y-94559790D01*
X123240226Y-94703953D01*
X123409744Y-94817221D01*
X123598102Y-94895242D01*
X123798061Y-94935016D01*
X124001939Y-94935016D01*
X124201898Y-94895242D01*
X124390256Y-94817221D01*
X124559774Y-94703953D01*
X124600008Y-94663719D01*
X124640226Y-94703937D01*
X124809744Y-94817205D01*
X124998102Y-94895226D01*
X125198061Y-94935000D01*
X125401939Y-94935000D01*
X125601898Y-94895226D01*
X125790256Y-94817205D01*
X125828164Y-94791875D01*
X125840226Y-94803937D01*
X126009744Y-94917205D01*
X126198102Y-94995226D01*
X126398061Y-95035000D01*
X126601939Y-95035000D01*
X126801898Y-94995226D01*
X126990256Y-94917205D01*
X127159774Y-94803937D01*
X127303937Y-94659774D01*
X127417205Y-94490256D01*
X127495226Y-94301898D01*
X127535000Y-94101939D01*
X127535000Y-93898061D01*
X127495226Y-93698102D01*
X127417205Y-93509744D01*
X127303937Y-93340226D01*
X127159774Y-93196063D01*
X126990256Y-93082795D01*
X126801898Y-93004774D01*
X126601939Y-92965000D01*
X126539802Y-92965000D01*
X125863804Y-92289003D01*
X125840001Y-92259999D01*
X125724276Y-92165026D01*
X125592247Y-92094454D01*
X125448986Y-92050997D01*
X125337333Y-92040000D01*
X125337322Y-92040000D01*
X125300000Y-92036324D01*
X125262678Y-92040000D01*
X124603711Y-92040000D01*
X124559774Y-91996063D01*
X124390256Y-91882795D01*
X124201898Y-91804774D01*
X124001939Y-91765000D01*
X123798061Y-91765000D01*
X123598102Y-91804774D01*
X123409744Y-91882795D01*
X123240226Y-91996063D01*
X123096063Y-92140226D01*
X122982795Y-92309744D01*
X122904774Y-92498102D01*
X122865000Y-92698061D01*
X121488072Y-92698061D01*
X121488072Y-92575000D01*
X121480685Y-92500000D01*
X121488072Y-92425000D01*
X121488072Y-92075000D01*
X121480514Y-91998262D01*
X121485000Y-91956750D01*
X121474525Y-91946275D01*
X121439502Y-91830820D01*
X121396302Y-91750000D01*
X121439502Y-91669180D01*
X121474525Y-91553725D01*
X121485000Y-91543250D01*
X121480514Y-91501738D01*
X121488072Y-91425000D01*
X121488072Y-91075000D01*
X121480685Y-91000000D01*
X121488072Y-90925000D01*
X121488072Y-90575000D01*
X121480514Y-90498262D01*
X121485000Y-90456750D01*
X121474525Y-90446275D01*
X121439502Y-90330820D01*
X121396302Y-90250000D01*
X121439502Y-90169180D01*
X121474525Y-90053725D01*
X121485000Y-90043250D01*
X121480514Y-90001738D01*
X121488072Y-89925000D01*
X121488072Y-89575000D01*
X121480685Y-89500000D01*
X121488072Y-89425000D01*
X121488072Y-89075000D01*
X121480514Y-88998262D01*
X121485000Y-88956750D01*
X121474525Y-88946275D01*
X121439502Y-88830820D01*
X121396302Y-88750000D01*
X121439502Y-88669180D01*
X121474525Y-88553725D01*
X121485000Y-88543250D01*
X121480514Y-88501738D01*
X121485609Y-88450000D01*
X125971928Y-88450000D01*
X125971928Y-90150000D01*
X125984188Y-90274482D01*
X126020498Y-90394180D01*
X126079463Y-90504494D01*
X126158815Y-90601185D01*
X126255506Y-90680537D01*
X126365820Y-90739502D01*
X126485518Y-90775812D01*
X126610000Y-90788072D01*
X128310000Y-90788072D01*
X128434482Y-90775812D01*
X128554180Y-90739502D01*
X128664494Y-90680537D01*
X128761185Y-90601185D01*
X128840537Y-90504494D01*
X128899502Y-90394180D01*
X128935812Y-90274482D01*
X128948072Y-90150000D01*
X128948072Y-88450000D01*
X128935812Y-88325518D01*
X128899502Y-88205820D01*
X128840537Y-88095506D01*
X128761185Y-87998815D01*
X128664494Y-87919463D01*
X128554180Y-87860498D01*
X128434482Y-87824188D01*
X128310000Y-87811928D01*
X126610000Y-87811928D01*
X126485518Y-87824188D01*
X126365820Y-87860498D01*
X126255506Y-87919463D01*
X126158815Y-87998815D01*
X126079463Y-88095506D01*
X126020498Y-88205820D01*
X125984188Y-88325518D01*
X125971928Y-88450000D01*
X121485609Y-88450000D01*
X121488072Y-88425000D01*
X121488072Y-88075000D01*
X121480685Y-88000000D01*
X121488072Y-87925000D01*
X121488072Y-87575000D01*
X121480514Y-87498262D01*
X121485000Y-87456750D01*
X121474525Y-87446275D01*
X121439502Y-87330820D01*
X121396302Y-87250000D01*
X121439502Y-87169180D01*
X121474525Y-87053725D01*
X121485000Y-87043250D01*
X121480514Y-87001738D01*
X121488072Y-86925000D01*
X121488072Y-86847815D01*
X121496063Y-86859774D01*
X121640226Y-87003937D01*
X121809744Y-87117205D01*
X121998102Y-87195226D01*
X122198061Y-87235000D01*
X122401939Y-87235000D01*
X122601898Y-87195226D01*
X122790256Y-87117205D01*
X122959774Y-87003937D01*
X123103937Y-86859774D01*
X123217205Y-86690256D01*
X123231025Y-86656891D01*
X123478519Y-86656891D01*
X123575843Y-86931252D01*
X123724822Y-87181355D01*
X123919731Y-87397588D01*
X124153080Y-87571641D01*
X124415901Y-87696825D01*
X124563110Y-87741476D01*
X124793000Y-87620155D01*
X124793000Y-86427000D01*
X123599186Y-86427000D01*
X123478519Y-86656891D01*
X123231025Y-86656891D01*
X123295226Y-86501898D01*
X123335000Y-86301939D01*
X123335000Y-86098061D01*
X123304179Y-85943109D01*
X123478519Y-85943109D01*
X123599186Y-86173000D01*
X124793000Y-86173000D01*
X124793000Y-84979845D01*
X125047000Y-84979845D01*
X125047000Y-86173000D01*
X125067000Y-86173000D01*
X125067000Y-86427000D01*
X125047000Y-86427000D01*
X125047000Y-87620155D01*
X125276890Y-87741476D01*
X125424099Y-87696825D01*
X125686920Y-87571641D01*
X125920269Y-87397588D01*
X126115178Y-87181355D01*
X126184799Y-87064477D01*
X126219294Y-87129014D01*
X126404866Y-87355134D01*
X126630986Y-87540706D01*
X126888966Y-87678599D01*
X127168889Y-87763513D01*
X127387050Y-87785000D01*
X127532950Y-87785000D01*
X127751111Y-87763513D01*
X128031034Y-87678599D01*
X128289014Y-87540706D01*
X128515134Y-87355134D01*
X128539607Y-87325313D01*
X128560498Y-87394180D01*
X128619463Y-87504494D01*
X128698815Y-87601185D01*
X128795506Y-87680537D01*
X128905820Y-87739502D01*
X129025518Y-87775812D01*
X129150000Y-87788072D01*
X130850000Y-87788072D01*
X130974482Y-87775812D01*
X131094180Y-87739502D01*
X131204494Y-87680537D01*
X131301185Y-87601185D01*
X131380537Y-87504494D01*
X131439502Y-87394180D01*
X131475812Y-87274482D01*
X131488072Y-87150000D01*
X131488072Y-85450000D01*
X131475812Y-85325518D01*
X131439502Y-85205820D01*
X131380537Y-85095506D01*
X131301185Y-84998815D01*
X131204494Y-84919463D01*
X131094180Y-84860498D01*
X130974482Y-84824188D01*
X130850000Y-84811928D01*
X129150000Y-84811928D01*
X129025518Y-84824188D01*
X128905820Y-84860498D01*
X128795506Y-84919463D01*
X128698815Y-84998815D01*
X128619463Y-85095506D01*
X128560498Y-85205820D01*
X128539607Y-85274687D01*
X128515134Y-85244866D01*
X128289014Y-85059294D01*
X128031034Y-84921401D01*
X127751111Y-84836487D01*
X127532950Y-84815000D01*
X127387050Y-84815000D01*
X127168889Y-84836487D01*
X126888966Y-84921401D01*
X126630986Y-85059294D01*
X126404866Y-85244866D01*
X126219294Y-85470986D01*
X126184799Y-85535523D01*
X126115178Y-85418645D01*
X125920269Y-85202412D01*
X125686920Y-85028359D01*
X125424099Y-84903175D01*
X125276890Y-84858524D01*
X125047000Y-84979845D01*
X124793000Y-84979845D01*
X124563110Y-84858524D01*
X124415901Y-84903175D01*
X124153080Y-85028359D01*
X123919731Y-85202412D01*
X123724822Y-85418645D01*
X123575843Y-85668748D01*
X123478519Y-85943109D01*
X123304179Y-85943109D01*
X123295226Y-85898102D01*
X123217205Y-85709744D01*
X123103937Y-85540226D01*
X123056575Y-85492864D01*
X123125486Y-85435855D01*
X123167639Y-85393406D01*
X123210371Y-85351561D01*
X123216245Y-85344460D01*
X123277921Y-85268840D01*
X123311052Y-85218975D01*
X123344825Y-85169650D01*
X123349208Y-85161544D01*
X123395020Y-85075383D01*
X123417809Y-85020091D01*
X123441378Y-84965102D01*
X123444103Y-84956299D01*
X123472308Y-84862881D01*
X123483933Y-84804174D01*
X123496365Y-84745684D01*
X123497327Y-84736530D01*
X123497328Y-84736524D01*
X123497328Y-84736519D01*
X123504830Y-84660000D01*
X148190001Y-84660000D01*
X148190000Y-105340000D01*
X148190000Y-105340000D01*
G37*
X148190000Y-105340000D02*
X123505057Y-105340000D01*
X123501311Y-105304360D01*
X123500450Y-105295617D01*
X123500362Y-105295325D01*
X123496173Y-105255473D01*
X123484140Y-105196854D01*
X123472936Y-105138116D01*
X123470272Y-105129294D01*
X123441416Y-105036075D01*
X123418238Y-104980937D01*
X123395825Y-104925463D01*
X123391498Y-104917327D01*
X123345085Y-104831489D01*
X123311645Y-104781913D01*
X123278881Y-104731844D01*
X123273057Y-104724703D01*
X123210855Y-104649514D01*
X123168406Y-104607361D01*
X123126561Y-104564629D01*
X123119460Y-104558755D01*
X123043839Y-104497079D01*
X122994034Y-104463988D01*
X122944650Y-104430174D01*
X122936544Y-104425792D01*
X122850383Y-104379980D01*
X122795091Y-104357191D01*
X122740102Y-104333622D01*
X122731299Y-104330897D01*
X122637881Y-104302692D01*
X122579174Y-104291067D01*
X122520684Y-104278635D01*
X122511530Y-104277673D01*
X122511524Y-104277672D01*
X122511519Y-104277672D01*
X122414402Y-104268150D01*
X122382419Y-104265000D01*
X121388284Y-104265000D01*
X121439502Y-104169180D01*
X121474525Y-104053725D01*
X121485000Y-104043250D01*
X121480514Y-104001738D01*
X121488072Y-103925000D01*
X121488072Y-103575000D01*
X121480685Y-103500000D01*
X121488072Y-103425000D01*
X121488072Y-103075000D01*
X121480514Y-102998262D01*
X121485000Y-102956750D01*
X121474525Y-102946275D01*
X121439502Y-102830820D01*
X121396302Y-102750000D01*
X121439502Y-102669180D01*
X121474525Y-102553725D01*
X121485000Y-102543250D01*
X121480514Y-102501738D01*
X121488072Y-102425000D01*
X121488072Y-102075000D01*
X121480685Y-102000000D01*
X121488072Y-101925000D01*
X121488072Y-101575000D01*
X121480685Y-101500000D01*
X121488072Y-101425000D01*
X121488072Y-101075000D01*
X121480685Y-101000000D01*
X121488072Y-100925000D01*
X121488072Y-100575000D01*
X121480685Y-100500000D01*
X121488072Y-100425000D01*
X121488072Y-100075000D01*
X121480685Y-100000000D01*
X121488072Y-99925000D01*
X121488072Y-99575000D01*
X121480685Y-99500000D01*
X121488072Y-99425000D01*
X121488072Y-99075000D01*
X121480685Y-99000000D01*
X121488072Y-98925000D01*
X121488072Y-98885000D01*
X121782419Y-98885000D01*
X121814991Y-98881792D01*
X121822782Y-98881792D01*
X121831947Y-98880829D01*
X121948317Y-98867776D01*
X122006834Y-98855337D01*
X122065512Y-98843719D01*
X122074315Y-98840994D01*
X122185933Y-98805586D01*
X122240904Y-98782024D01*
X122296216Y-98759227D01*
X122304322Y-98754844D01*
X122406937Y-98698431D01*
X122456298Y-98664632D01*
X122506118Y-98631533D01*
X122513218Y-98625659D01*
X122602922Y-98550389D01*
X122644767Y-98507659D01*
X122687223Y-98465498D01*
X122693047Y-98458357D01*
X122766422Y-98367097D01*
X122799178Y-98317041D01*
X122832629Y-98267447D01*
X122836955Y-98259310D01*
X122891206Y-98155536D01*
X122913608Y-98100087D01*
X122936794Y-98044931D01*
X122939457Y-98036109D01*
X122972519Y-97923775D01*
X122983724Y-97865034D01*
X122995757Y-97806417D01*
X122996656Y-97797246D01*
X123007269Y-97680628D01*
X123006851Y-97620811D01*
X123007269Y-97560994D01*
X123006370Y-97551823D01*
X122994130Y-97435365D01*
X122982098Y-97376753D01*
X122970893Y-97318008D01*
X122968229Y-97309186D01*
X122933602Y-97197324D01*
X122910416Y-97142168D01*
X122888014Y-97086719D01*
X122883688Y-97078582D01*
X122827993Y-96975575D01*
X122794557Y-96926005D01*
X122761785Y-96875923D01*
X122755960Y-96868782D01*
X122681318Y-96778556D01*
X122638884Y-96736418D01*
X122597022Y-96693669D01*
X122589921Y-96687796D01*
X122589918Y-96687793D01*
X122589914Y-96687791D01*
X122499176Y-96613785D01*
X122449376Y-96580698D01*
X122399993Y-96546884D01*
X122391891Y-96542505D01*
X122391887Y-96542502D01*
X122391883Y-96542500D01*
X122288493Y-96487527D01*
X122233234Y-96464751D01*
X122178205Y-96441165D01*
X122169402Y-96438441D01*
X122057301Y-96404596D01*
X121998628Y-96392979D01*
X121940111Y-96380540D01*
X121930946Y-96379577D01*
X121814405Y-96368150D01*
X121814402Y-96368150D01*
X121782419Y-96365000D01*
X121393250Y-96365000D01*
X121347725Y-96319475D01*
X121380537Y-96279494D01*
X121439502Y-96169180D01*
X121474525Y-96053725D01*
X121485000Y-96043250D01*
X121480514Y-96001738D01*
X121488072Y-95925000D01*
X121488072Y-95575000D01*
X121480685Y-95500000D01*
X121488072Y-95425000D01*
X121488072Y-95075000D01*
X121480514Y-94998262D01*
X121485000Y-94956750D01*
X121474525Y-94946275D01*
X121439502Y-94830820D01*
X121396302Y-94750000D01*
X121439502Y-94669180D01*
X121474525Y-94553725D01*
X121485000Y-94543250D01*
X121480514Y-94501738D01*
X121488072Y-94425000D01*
X121488072Y-94075000D01*
X121480685Y-93999999D01*
X121488072Y-93925000D01*
X121488072Y-93575000D01*
X121480514Y-93498262D01*
X121485000Y-93456750D01*
X121474525Y-93446275D01*
X121439502Y-93330820D01*
X121396302Y-93250000D01*
X121439502Y-93169180D01*
X121474525Y-93053725D01*
X121485000Y-93043250D01*
X121480514Y-93001738D01*
X121488072Y-92925000D01*
X121488072Y-92698061D01*
X122865000Y-92698061D01*
X122865000Y-92901939D01*
X122904774Y-93101898D01*
X122982795Y-93290256D01*
X123022720Y-93350008D01*
X122982795Y-93409760D01*
X122904774Y-93598118D01*
X122865000Y-93798077D01*
X122865000Y-94001955D01*
X122904774Y-94201914D01*
X122982795Y-94390272D01*
X123096063Y-94559790D01*
X123240226Y-94703953D01*
X123409744Y-94817221D01*
X123598102Y-94895242D01*
X123798061Y-94935016D01*
X124001939Y-94935016D01*
X124201898Y-94895242D01*
X124390256Y-94817221D01*
X124559774Y-94703953D01*
X124600008Y-94663719D01*
X124640226Y-94703937D01*
X124809744Y-94817205D01*
X124998102Y-94895226D01*
X125198061Y-94935000D01*
X125401939Y-94935000D01*
X125601898Y-94895226D01*
X125790256Y-94817205D01*
X125828164Y-94791875D01*
X125840226Y-94803937D01*
X126009744Y-94917205D01*
X126198102Y-94995226D01*
X126398061Y-95035000D01*
X126601939Y-95035000D01*
X126801898Y-94995226D01*
X126990256Y-94917205D01*
X127159774Y-94803937D01*
X127303937Y-94659774D01*
X127417205Y-94490256D01*
X127495226Y-94301898D01*
X127535000Y-94101939D01*
X127535000Y-93898061D01*
X127495226Y-93698102D01*
X127417205Y-93509744D01*
X127303937Y-93340226D01*
X127159774Y-93196063D01*
X126990256Y-93082795D01*
X126801898Y-93004774D01*
X126601939Y-92965000D01*
X126539802Y-92965000D01*
X125863804Y-92289003D01*
X125840001Y-92259999D01*
X125724276Y-92165026D01*
X125592247Y-92094454D01*
X125448986Y-92050997D01*
X125337333Y-92040000D01*
X125337322Y-92040000D01*
X125300000Y-92036324D01*
X125262678Y-92040000D01*
X124603711Y-92040000D01*
X124559774Y-91996063D01*
X124390256Y-91882795D01*
X124201898Y-91804774D01*
X124001939Y-91765000D01*
X123798061Y-91765000D01*
X123598102Y-91804774D01*
X123409744Y-91882795D01*
X123240226Y-91996063D01*
X123096063Y-92140226D01*
X122982795Y-92309744D01*
X122904774Y-92498102D01*
X122865000Y-92698061D01*
X121488072Y-92698061D01*
X121488072Y-92575000D01*
X121480685Y-92500000D01*
X121488072Y-92425000D01*
X121488072Y-92075000D01*
X121480514Y-91998262D01*
X121485000Y-91956750D01*
X121474525Y-91946275D01*
X121439502Y-91830820D01*
X121396302Y-91750000D01*
X121439502Y-91669180D01*
X121474525Y-91553725D01*
X121485000Y-91543250D01*
X121480514Y-91501738D01*
X121488072Y-91425000D01*
X121488072Y-91075000D01*
X121480685Y-91000000D01*
X121488072Y-90925000D01*
X121488072Y-90575000D01*
X121480514Y-90498262D01*
X121485000Y-90456750D01*
X121474525Y-90446275D01*
X121439502Y-90330820D01*
X121396302Y-90250000D01*
X121439502Y-90169180D01*
X121474525Y-90053725D01*
X121485000Y-90043250D01*
X121480514Y-90001738D01*
X121488072Y-89925000D01*
X121488072Y-89575000D01*
X121480685Y-89500000D01*
X121488072Y-89425000D01*
X121488072Y-89075000D01*
X121480514Y-88998262D01*
X121485000Y-88956750D01*
X121474525Y-88946275D01*
X121439502Y-88830820D01*
X121396302Y-88750000D01*
X121439502Y-88669180D01*
X121474525Y-88553725D01*
X121485000Y-88543250D01*
X121480514Y-88501738D01*
X121485609Y-88450000D01*
X125971928Y-88450000D01*
X125971928Y-90150000D01*
X125984188Y-90274482D01*
X126020498Y-90394180D01*
X126079463Y-90504494D01*
X126158815Y-90601185D01*
X126255506Y-90680537D01*
X126365820Y-90739502D01*
X126485518Y-90775812D01*
X126610000Y-90788072D01*
X128310000Y-90788072D01*
X128434482Y-90775812D01*
X128554180Y-90739502D01*
X128664494Y-90680537D01*
X128761185Y-90601185D01*
X128840537Y-90504494D01*
X128899502Y-90394180D01*
X128935812Y-90274482D01*
X128948072Y-90150000D01*
X128948072Y-88450000D01*
X128935812Y-88325518D01*
X128899502Y-88205820D01*
X128840537Y-88095506D01*
X128761185Y-87998815D01*
X128664494Y-87919463D01*
X128554180Y-87860498D01*
X128434482Y-87824188D01*
X128310000Y-87811928D01*
X126610000Y-87811928D01*
X126485518Y-87824188D01*
X126365820Y-87860498D01*
X126255506Y-87919463D01*
X126158815Y-87998815D01*
X126079463Y-88095506D01*
X126020498Y-88205820D01*
X125984188Y-88325518D01*
X125971928Y-88450000D01*
X121485609Y-88450000D01*
X121488072Y-88425000D01*
X121488072Y-88075000D01*
X121480685Y-88000000D01*
X121488072Y-87925000D01*
X121488072Y-87575000D01*
X121480514Y-87498262D01*
X121485000Y-87456750D01*
X121474525Y-87446275D01*
X121439502Y-87330820D01*
X121396302Y-87250000D01*
X121439502Y-87169180D01*
X121474525Y-87053725D01*
X121485000Y-87043250D01*
X121480514Y-87001738D01*
X121488072Y-86925000D01*
X121488072Y-86847815D01*
X121496063Y-86859774D01*
X121640226Y-87003937D01*
X121809744Y-87117205D01*
X121998102Y-87195226D01*
X122198061Y-87235000D01*
X122401939Y-87235000D01*
X122601898Y-87195226D01*
X122790256Y-87117205D01*
X122959774Y-87003937D01*
X123103937Y-86859774D01*
X123217205Y-86690256D01*
X123231025Y-86656891D01*
X123478519Y-86656891D01*
X123575843Y-86931252D01*
X123724822Y-87181355D01*
X123919731Y-87397588D01*
X124153080Y-87571641D01*
X124415901Y-87696825D01*
X124563110Y-87741476D01*
X124793000Y-87620155D01*
X124793000Y-86427000D01*
X123599186Y-86427000D01*
X123478519Y-86656891D01*
X123231025Y-86656891D01*
X123295226Y-86501898D01*
X123335000Y-86301939D01*
X123335000Y-86098061D01*
X123304179Y-85943109D01*
X123478519Y-85943109D01*
X123599186Y-86173000D01*
X124793000Y-86173000D01*
X124793000Y-84979845D01*
X125047000Y-84979845D01*
X125047000Y-86173000D01*
X125067000Y-86173000D01*
X125067000Y-86427000D01*
X125047000Y-86427000D01*
X125047000Y-87620155D01*
X125276890Y-87741476D01*
X125424099Y-87696825D01*
X125686920Y-87571641D01*
X125920269Y-87397588D01*
X126115178Y-87181355D01*
X126184799Y-87064477D01*
X126219294Y-87129014D01*
X126404866Y-87355134D01*
X126630986Y-87540706D01*
X126888966Y-87678599D01*
X127168889Y-87763513D01*
X127387050Y-87785000D01*
X127532950Y-87785000D01*
X127751111Y-87763513D01*
X128031034Y-87678599D01*
X128289014Y-87540706D01*
X128515134Y-87355134D01*
X128539607Y-87325313D01*
X128560498Y-87394180D01*
X128619463Y-87504494D01*
X128698815Y-87601185D01*
X128795506Y-87680537D01*
X128905820Y-87739502D01*
X129025518Y-87775812D01*
X129150000Y-87788072D01*
X130850000Y-87788072D01*
X130974482Y-87775812D01*
X131094180Y-87739502D01*
X131204494Y-87680537D01*
X131301185Y-87601185D01*
X131380537Y-87504494D01*
X131439502Y-87394180D01*
X131475812Y-87274482D01*
X131488072Y-87150000D01*
X131488072Y-85450000D01*
X131475812Y-85325518D01*
X131439502Y-85205820D01*
X131380537Y-85095506D01*
X131301185Y-84998815D01*
X131204494Y-84919463D01*
X131094180Y-84860498D01*
X130974482Y-84824188D01*
X130850000Y-84811928D01*
X129150000Y-84811928D01*
X129025518Y-84824188D01*
X128905820Y-84860498D01*
X128795506Y-84919463D01*
X128698815Y-84998815D01*
X128619463Y-85095506D01*
X128560498Y-85205820D01*
X128539607Y-85274687D01*
X128515134Y-85244866D01*
X128289014Y-85059294D01*
X128031034Y-84921401D01*
X127751111Y-84836487D01*
X127532950Y-84815000D01*
X127387050Y-84815000D01*
X127168889Y-84836487D01*
X126888966Y-84921401D01*
X126630986Y-85059294D01*
X126404866Y-85244866D01*
X126219294Y-85470986D01*
X126184799Y-85535523D01*
X126115178Y-85418645D01*
X125920269Y-85202412D01*
X125686920Y-85028359D01*
X125424099Y-84903175D01*
X125276890Y-84858524D01*
X125047000Y-84979845D01*
X124793000Y-84979845D01*
X124563110Y-84858524D01*
X124415901Y-84903175D01*
X124153080Y-85028359D01*
X123919731Y-85202412D01*
X123724822Y-85418645D01*
X123575843Y-85668748D01*
X123478519Y-85943109D01*
X123304179Y-85943109D01*
X123295226Y-85898102D01*
X123217205Y-85709744D01*
X123103937Y-85540226D01*
X123056575Y-85492864D01*
X123125486Y-85435855D01*
X123167639Y-85393406D01*
X123210371Y-85351561D01*
X123216245Y-85344460D01*
X123277921Y-85268840D01*
X123311052Y-85218975D01*
X123344825Y-85169650D01*
X123349208Y-85161544D01*
X123395020Y-85075383D01*
X123417809Y-85020091D01*
X123441378Y-84965102D01*
X123444103Y-84956299D01*
X123472308Y-84862881D01*
X123483933Y-84804174D01*
X123496365Y-84745684D01*
X123497327Y-84736530D01*
X123497328Y-84736524D01*
X123497328Y-84736519D01*
X123504830Y-84660000D01*
X148190001Y-84660000D01*
X148190000Y-105340000D01*
M02*
