G04 #@! TF.GenerationSoftware,KiCad,Pcbnew,6.0.7-1.fc36*
G04 #@! TF.CreationDate,2022-08-19T16:17:08-04:00*
G04 #@! TF.ProjectId,librem5-m2-breakout,6c696272-656d-4352-9d6d-322d62726561,v0.5.0*
G04 #@! TF.SameCoordinates,Original*
G04 #@! TF.FileFunction,Copper,L1,Top*
G04 #@! TF.FilePolarity,Positive*
%FSLAX46Y46*%
G04 Gerber Fmt 4.6, Leading zero omitted, Abs format (unit mm)*
G04 Created by KiCad (PCBNEW 6.0.7-1.fc36) date 2022-08-19 16:17:08*
%MOMM*%
%LPD*%
G01*
G04 APERTURE LIST*
G04 #@! TA.AperFunction,ComponentPad*
%ADD10C,6.150000*%
G04 #@! TD*
G04 #@! TA.AperFunction,SMDPad,CuDef*
%ADD11R,1.700000X0.350000*%
G04 #@! TD*
G04 #@! TA.AperFunction,ComponentPad*
%ADD12R,1.700000X1.700000*%
G04 #@! TD*
G04 #@! TA.AperFunction,ComponentPad*
%ADD13O,1.700000X1.700000*%
G04 #@! TD*
G04 #@! TA.AperFunction,ViaPad*
%ADD14C,0.800000*%
G04 #@! TD*
G04 #@! TA.AperFunction,Conductor*
%ADD15C,0.250000*%
G04 #@! TD*
G04 APERTURE END LIST*
D10*
X148850000Y-95000000D03*
D11*
X120000000Y-104250000D03*
X120000000Y-103750000D03*
X120000000Y-103250000D03*
X120000000Y-102750000D03*
X120000000Y-102250000D03*
X120000000Y-101750000D03*
X120000000Y-101250000D03*
X120000000Y-100750000D03*
X120000000Y-100250000D03*
X120000000Y-99750000D03*
X120000000Y-99250000D03*
X120000000Y-98750000D03*
X120000000Y-96250000D03*
X120000000Y-95750000D03*
X120000000Y-95250000D03*
X120000000Y-94750000D03*
X120000000Y-94250000D03*
X120000000Y-93750000D03*
X120000000Y-93250000D03*
X120000000Y-92750000D03*
X120000000Y-92250000D03*
X120000000Y-91750000D03*
X120000000Y-91250000D03*
X120000000Y-90750000D03*
X120000000Y-90250000D03*
X120000000Y-89750000D03*
X120000000Y-89250000D03*
X120000000Y-88750000D03*
X120000000Y-88250000D03*
X120000000Y-87750000D03*
X120000000Y-87250000D03*
X120000000Y-86750000D03*
X120000000Y-86250000D03*
X120000000Y-85750000D03*
D12*
X127460000Y-89300000D03*
X130000000Y-86300000D03*
D13*
X127460000Y-86300000D03*
X124920000Y-86300000D03*
D14*
X126500000Y-94000000D03*
X123900000Y-92800000D03*
X131300000Y-102250000D03*
X134000000Y-86000000D03*
X135000000Y-88000000D03*
X122000000Y-93900000D03*
X137000000Y-90000000D03*
X139000000Y-104500000D03*
X140000000Y-101000000D03*
X131000000Y-93000000D03*
X140000000Y-99000000D03*
X123000000Y-103000016D03*
X123900000Y-93900016D03*
X125300000Y-93900000D03*
D15*
X124465685Y-92800000D02*
X123900000Y-92800000D01*
X125300000Y-92800000D02*
X124465685Y-92800000D01*
X126500000Y-94000000D02*
X125300000Y-92800000D01*
X120000000Y-96250000D02*
X121100000Y-96250000D01*
X120000000Y-91750000D02*
X121100000Y-91750000D01*
X120000000Y-90250000D02*
X121100000Y-90250000D01*
X121100000Y-91750000D02*
X121199990Y-91650010D01*
X124920000Y-86430000D02*
X124920000Y-86300000D01*
X121199990Y-91400010D02*
X121199990Y-90150010D01*
X121100000Y-85750000D02*
X121399999Y-85450001D01*
X123375000Y-104775000D02*
X124045000Y-104775000D01*
X121100000Y-93250000D02*
X121199990Y-93150010D01*
X120000000Y-87250000D02*
X123970000Y-87250000D01*
X121199990Y-94899990D02*
X121199990Y-94700010D01*
X121199990Y-94899990D02*
X121199990Y-94500010D01*
X121100000Y-94750000D02*
X121199990Y-94650010D01*
X120000000Y-104250000D02*
X122850000Y-104250000D01*
X120000000Y-93250000D02*
X121100000Y-93250000D01*
X120000000Y-94750000D02*
X121100000Y-94750000D01*
X121199990Y-90150010D02*
X121525000Y-89825000D01*
X122470000Y-88750000D02*
X124920000Y-86300000D01*
X123970000Y-87250000D02*
X124920000Y-86300000D01*
X122850000Y-104250000D02*
X123375000Y-104775000D01*
X121199990Y-94700010D02*
X122000000Y-93900000D01*
X121199990Y-91650010D02*
X121199990Y-91400010D01*
X121199990Y-96150010D02*
X121199990Y-94899990D01*
X120000000Y-85750000D02*
X121100000Y-85750000D01*
X131300000Y-102250000D02*
X141299990Y-102250000D01*
X121100000Y-96250000D02*
X121199990Y-96150010D01*
X121199990Y-94500010D02*
X121199990Y-92900010D01*
X121399999Y-85450001D02*
X124070001Y-85450001D01*
X124070001Y-85450001D02*
X124920000Y-86300000D01*
X120000000Y-88750000D02*
X122470000Y-88750000D01*
X121525000Y-89825000D02*
X124920000Y-86430000D01*
X121199990Y-93150010D02*
X121199990Y-92900010D01*
X141299990Y-102250000D02*
X148549990Y-95000000D01*
X120000000Y-102750000D02*
X122749984Y-102750000D01*
X121199990Y-92900010D02*
X121199990Y-91400010D01*
X121100000Y-90250000D02*
X121525000Y-89825000D01*
X121199990Y-94650010D02*
X121199990Y-94500010D01*
X122749984Y-102750000D02*
X123000000Y-103000016D01*
X123900016Y-93900000D02*
X123900000Y-93900016D01*
X125300000Y-93900000D02*
X123900016Y-93900000D01*
G04 #@! TA.AperFunction,Conductor*
G36*
X148283621Y-84528502D02*
G01*
X148330114Y-84582158D01*
X148341500Y-84634500D01*
X148341500Y-105365500D01*
X148321498Y-105433621D01*
X148267842Y-105480114D01*
X148215500Y-105491500D01*
X123483628Y-105491500D01*
X123415507Y-105471498D01*
X123369014Y-105417842D01*
X123358107Y-105376482D01*
X123354144Y-105331186D01*
X123346972Y-105249207D01*
X123301300Y-105078755D01*
X123298977Y-105073773D01*
X123229049Y-104923811D01*
X123229046Y-104923806D01*
X123226723Y-104918824D01*
X123125507Y-104774273D01*
X123000727Y-104649493D01*
X122996219Y-104646336D01*
X122996216Y-104646334D01*
X122936874Y-104604783D01*
X122856176Y-104548277D01*
X122851194Y-104545954D01*
X122851189Y-104545951D01*
X122701227Y-104476023D01*
X122701226Y-104476022D01*
X122696245Y-104473700D01*
X122690937Y-104472278D01*
X122690935Y-104472277D01*
X122531108Y-104429452D01*
X122531107Y-104429452D01*
X122525793Y-104428028D01*
X122396288Y-104416698D01*
X122386374Y-104415432D01*
X122375444Y-104413593D01*
X122367344Y-104412230D01*
X122367342Y-104412230D01*
X122362552Y-104411424D01*
X122356276Y-104411348D01*
X122354860Y-104411330D01*
X122354857Y-104411330D01*
X122350000Y-104411271D01*
X122324058Y-104414986D01*
X122322376Y-104415227D01*
X122304514Y-104416500D01*
X121369042Y-104416500D01*
X121300921Y-104396498D01*
X121254428Y-104342842D01*
X121244324Y-104272568D01*
X121268216Y-104214935D01*
X121295233Y-104178887D01*
X121295235Y-104178884D01*
X121300615Y-104171705D01*
X121317963Y-104125429D01*
X121340720Y-104087147D01*
X121356328Y-104069135D01*
X121357999Y-104061452D01*
X121357999Y-104030332D01*
X121357630Y-104023517D01*
X121356806Y-104015929D01*
X121356807Y-103988725D01*
X121358130Y-103976539D01*
X121358500Y-103973134D01*
X121358500Y-103526866D01*
X121358132Y-103523475D01*
X121358131Y-103523465D01*
X121357060Y-103513607D01*
X121357060Y-103486393D01*
X121358131Y-103476535D01*
X121358132Y-103476525D01*
X121358500Y-103473134D01*
X121358500Y-103026866D01*
X121356807Y-103011281D01*
X121356807Y-102984065D01*
X121357631Y-102976478D01*
X121358000Y-102969672D01*
X121358000Y-102943115D01*
X121353193Y-102926744D01*
X121319201Y-102877874D01*
X121300615Y-102828295D01*
X121295232Y-102821113D01*
X121290921Y-102813238D01*
X121293446Y-102811856D01*
X121273721Y-102759058D01*
X121288774Y-102689676D01*
X121292501Y-102683877D01*
X121295234Y-102678885D01*
X121300615Y-102671705D01*
X121317963Y-102625429D01*
X121340720Y-102587147D01*
X121356328Y-102569135D01*
X121357999Y-102561452D01*
X121357999Y-102530332D01*
X121357630Y-102523517D01*
X121356806Y-102515929D01*
X121356807Y-102488725D01*
X121358130Y-102476539D01*
X121358500Y-102473134D01*
X121358500Y-102026866D01*
X121358132Y-102023475D01*
X121358131Y-102023465D01*
X121357060Y-102013607D01*
X121357060Y-101986393D01*
X121358131Y-101976535D01*
X121358132Y-101976525D01*
X121358500Y-101973134D01*
X121358500Y-101526866D01*
X121358132Y-101523475D01*
X121358131Y-101523465D01*
X121357060Y-101513607D01*
X121357060Y-101486393D01*
X121358131Y-101476535D01*
X121358132Y-101476525D01*
X121358500Y-101473134D01*
X121358500Y-101026866D01*
X121358132Y-101023475D01*
X121358131Y-101023465D01*
X121357060Y-101013607D01*
X121357060Y-100986393D01*
X121358131Y-100976535D01*
X121358132Y-100976525D01*
X121358500Y-100973134D01*
X121358500Y-100526866D01*
X121358132Y-100523475D01*
X121358131Y-100523465D01*
X121357060Y-100513607D01*
X121357060Y-100486393D01*
X121358131Y-100476535D01*
X121358132Y-100476525D01*
X121358500Y-100473134D01*
X121358500Y-100026866D01*
X121358132Y-100023475D01*
X121358131Y-100023465D01*
X121357060Y-100013607D01*
X121357060Y-99986393D01*
X121358131Y-99976535D01*
X121358132Y-99976525D01*
X121358500Y-99973134D01*
X121358500Y-99526866D01*
X121358132Y-99523475D01*
X121358131Y-99523465D01*
X121357060Y-99513607D01*
X121357060Y-99486393D01*
X121358131Y-99476535D01*
X121358132Y-99476525D01*
X121358500Y-99473134D01*
X121358500Y-99026866D01*
X121358132Y-99023475D01*
X121358131Y-99023465D01*
X121357060Y-99013607D01*
X121357060Y-98986393D01*
X121358131Y-98976535D01*
X121358132Y-98976525D01*
X121358500Y-98973134D01*
X121358500Y-98859500D01*
X121378502Y-98791379D01*
X121432158Y-98744886D01*
X121484500Y-98733500D01*
X121696750Y-98733500D01*
X121717655Y-98735246D01*
X121732656Y-98737770D01*
X121732659Y-98737770D01*
X121737448Y-98738576D01*
X121743525Y-98738650D01*
X121745135Y-98738670D01*
X121745139Y-98738670D01*
X121750000Y-98738729D01*
X121754813Y-98738040D01*
X121754825Y-98738039D01*
X121764427Y-98736664D01*
X121771302Y-98735872D01*
X121937732Y-98721310D01*
X121937738Y-98721309D01*
X121943224Y-98720829D01*
X121948537Y-98719405D01*
X121948539Y-98719405D01*
X122125267Y-98672051D01*
X122125269Y-98672050D01*
X122130577Y-98670628D01*
X122135559Y-98668305D01*
X122301386Y-98590979D01*
X122301389Y-98590977D01*
X122306367Y-98588656D01*
X122465252Y-98477404D01*
X122602404Y-98340252D01*
X122713656Y-98181367D01*
X122745768Y-98112504D01*
X122793305Y-98010559D01*
X122793305Y-98010558D01*
X122795628Y-98005577D01*
X122845829Y-97818224D01*
X122862734Y-97625000D01*
X122845829Y-97431776D01*
X122795628Y-97244423D01*
X122760545Y-97169187D01*
X122715979Y-97073614D01*
X122715977Y-97073611D01*
X122713656Y-97068633D01*
X122602404Y-96909748D01*
X122465252Y-96772596D01*
X122306367Y-96661344D01*
X122301389Y-96659023D01*
X122301386Y-96659021D01*
X122135559Y-96581695D01*
X122135558Y-96581695D01*
X122130577Y-96579372D01*
X122125269Y-96577950D01*
X122125267Y-96577949D01*
X121948539Y-96530595D01*
X121948537Y-96530595D01*
X121943224Y-96529171D01*
X121791554Y-96515901D01*
X121781646Y-96514636D01*
X121771660Y-96512956D01*
X121767344Y-96512230D01*
X121767342Y-96512230D01*
X121762552Y-96511424D01*
X121756276Y-96511347D01*
X121754860Y-96511330D01*
X121754857Y-96511330D01*
X121750000Y-96511271D01*
X121726510Y-96514635D01*
X121722376Y-96515227D01*
X121704514Y-96516500D01*
X121473870Y-96516500D01*
X121405749Y-96496498D01*
X121359256Y-96442842D01*
X121353746Y-96428067D01*
X121352135Y-96426671D01*
X121335235Y-96422995D01*
X121272922Y-96388970D01*
X121238897Y-96326658D01*
X121243961Y-96255843D01*
X121261190Y-96224310D01*
X121295233Y-96178886D01*
X121300615Y-96171705D01*
X121317963Y-96125429D01*
X121340720Y-96087147D01*
X121356328Y-96069135D01*
X121357999Y-96061452D01*
X121357999Y-96030332D01*
X121357630Y-96023517D01*
X121356806Y-96015929D01*
X121356807Y-95988725D01*
X121358130Y-95976539D01*
X121358500Y-95973134D01*
X121358500Y-95526866D01*
X121358132Y-95523475D01*
X121358131Y-95523465D01*
X121357060Y-95513607D01*
X121357060Y-95486393D01*
X121358131Y-95476535D01*
X121358132Y-95476525D01*
X121358500Y-95473134D01*
X121358500Y-95026866D01*
X121356807Y-95011281D01*
X121356807Y-94984065D01*
X121357631Y-94976478D01*
X121358000Y-94969672D01*
X121358000Y-94943115D01*
X121353193Y-94926744D01*
X121319201Y-94877874D01*
X121300615Y-94828295D01*
X121295232Y-94821113D01*
X121290921Y-94813238D01*
X121293446Y-94811856D01*
X121273721Y-94759058D01*
X121288774Y-94689676D01*
X121292501Y-94683877D01*
X121295234Y-94678885D01*
X121300615Y-94671705D01*
X121317963Y-94625429D01*
X121340720Y-94587147D01*
X121356328Y-94569135D01*
X121357999Y-94561452D01*
X121357999Y-94530332D01*
X121357630Y-94523517D01*
X121356806Y-94515929D01*
X121356807Y-94488725D01*
X121358130Y-94476539D01*
X121358500Y-94473134D01*
X121358500Y-94026866D01*
X121358132Y-94023475D01*
X121358131Y-94023465D01*
X121357060Y-94013607D01*
X121357060Y-93986393D01*
X121358131Y-93976535D01*
X121358132Y-93976525D01*
X121358500Y-93973134D01*
X121358500Y-93900016D01*
X122986496Y-93900016D01*
X122987186Y-93906581D01*
X122997695Y-94006565D01*
X123006458Y-94089944D01*
X123065473Y-94271572D01*
X123160960Y-94436960D01*
X123165378Y-94441867D01*
X123165379Y-94441868D01*
X123284308Y-94573952D01*
X123288747Y-94578882D01*
X123300123Y-94587147D01*
X123433260Y-94683877D01*
X123443248Y-94691134D01*
X123449276Y-94693818D01*
X123449278Y-94693819D01*
X123611645Y-94766109D01*
X123617712Y-94768810D01*
X123704404Y-94787237D01*
X123798056Y-94807144D01*
X123798061Y-94807144D01*
X123804513Y-94808516D01*
X123995487Y-94808516D01*
X124001939Y-94807144D01*
X124001944Y-94807144D01*
X124095596Y-94787237D01*
X124182288Y-94768810D01*
X124188355Y-94766109D01*
X124350722Y-94693819D01*
X124350724Y-94693818D01*
X124356752Y-94691134D01*
X124366741Y-94683877D01*
X124499877Y-94587147D01*
X124511253Y-94578882D01*
X124515675Y-94573971D01*
X124515696Y-94573952D01*
X124579703Y-94543234D01*
X124650157Y-94551997D01*
X124684314Y-94573947D01*
X124684335Y-94573965D01*
X124688747Y-94578866D01*
X124700145Y-94587147D01*
X124833282Y-94683877D01*
X124843248Y-94691118D01*
X124849276Y-94693802D01*
X124849278Y-94693803D01*
X124995844Y-94759058D01*
X125017712Y-94768794D01*
X125104479Y-94787237D01*
X125198056Y-94807128D01*
X125198061Y-94807128D01*
X125204513Y-94808500D01*
X125395487Y-94808500D01*
X125401939Y-94807128D01*
X125401944Y-94807128D01*
X125495521Y-94787237D01*
X125582288Y-94768794D01*
X125604156Y-94759058D01*
X125750722Y-94693803D01*
X125750724Y-94693802D01*
X125756752Y-94691118D01*
X125762093Y-94687237D01*
X125767811Y-94683936D01*
X125769308Y-94686528D01*
X125823846Y-94667000D01*
X125893016Y-94683002D01*
X125905238Y-94690847D01*
X126043248Y-94791118D01*
X126049276Y-94793802D01*
X126049278Y-94793803D01*
X126211681Y-94866109D01*
X126217712Y-94868794D01*
X126311112Y-94888647D01*
X126398056Y-94907128D01*
X126398061Y-94907128D01*
X126404513Y-94908500D01*
X126595487Y-94908500D01*
X126601939Y-94907128D01*
X126601944Y-94907128D01*
X126688887Y-94888647D01*
X126782288Y-94868794D01*
X126788319Y-94866109D01*
X126950722Y-94793803D01*
X126950724Y-94793802D01*
X126956752Y-94791118D01*
X127111253Y-94678866D01*
X127205718Y-94573952D01*
X127234621Y-94541852D01*
X127234622Y-94541851D01*
X127239040Y-94536944D01*
X127334527Y-94371556D01*
X127393542Y-94189928D01*
X127413504Y-94000000D01*
X127402995Y-93900016D01*
X127394232Y-93816635D01*
X127394232Y-93816633D01*
X127393542Y-93810072D01*
X127334527Y-93628444D01*
X127239040Y-93463056D01*
X127111253Y-93321134D01*
X126956752Y-93208882D01*
X126950724Y-93206198D01*
X126950722Y-93206197D01*
X126788319Y-93133891D01*
X126788318Y-93133891D01*
X126782288Y-93131206D01*
X126688888Y-93111353D01*
X126601944Y-93092872D01*
X126601939Y-93092872D01*
X126595487Y-93091500D01*
X126539595Y-93091500D01*
X126471474Y-93071498D01*
X126450500Y-93054595D01*
X125803652Y-92407747D01*
X125796112Y-92399461D01*
X125792000Y-92392982D01*
X125742348Y-92346356D01*
X125739507Y-92343602D01*
X125719770Y-92323865D01*
X125716573Y-92321385D01*
X125707551Y-92313680D01*
X125681100Y-92288841D01*
X125675321Y-92283414D01*
X125668375Y-92279595D01*
X125668372Y-92279593D01*
X125657566Y-92273652D01*
X125641047Y-92262801D01*
X125635048Y-92258148D01*
X125625041Y-92250386D01*
X125617772Y-92247241D01*
X125617768Y-92247238D01*
X125584463Y-92232826D01*
X125573813Y-92227609D01*
X125535060Y-92206305D01*
X125515437Y-92201267D01*
X125496734Y-92194863D01*
X125485420Y-92189967D01*
X125485419Y-92189967D01*
X125478145Y-92186819D01*
X125470322Y-92185580D01*
X125470312Y-92185577D01*
X125434476Y-92179901D01*
X125422856Y-92177495D01*
X125387711Y-92168472D01*
X125387710Y-92168472D01*
X125380030Y-92166500D01*
X125359776Y-92166500D01*
X125340065Y-92164949D01*
X125327886Y-92163020D01*
X125320057Y-92161780D01*
X125312165Y-92162526D01*
X125276039Y-92165941D01*
X125264181Y-92166500D01*
X124608200Y-92166500D01*
X124540079Y-92146498D01*
X124520853Y-92130157D01*
X124520580Y-92130460D01*
X124515668Y-92126037D01*
X124511253Y-92121134D01*
X124356752Y-92008882D01*
X124350724Y-92006198D01*
X124350722Y-92006197D01*
X124188319Y-91933891D01*
X124188318Y-91933891D01*
X124182288Y-91931206D01*
X124088888Y-91911353D01*
X124001944Y-91892872D01*
X124001939Y-91892872D01*
X123995487Y-91891500D01*
X123804513Y-91891500D01*
X123798061Y-91892872D01*
X123798056Y-91892872D01*
X123711112Y-91911353D01*
X123617712Y-91931206D01*
X123611682Y-91933891D01*
X123611681Y-91933891D01*
X123449278Y-92006197D01*
X123449276Y-92006198D01*
X123443248Y-92008882D01*
X123288747Y-92121134D01*
X123284326Y-92126044D01*
X123284325Y-92126045D01*
X123175203Y-92247238D01*
X123160960Y-92263056D01*
X123065473Y-92428444D01*
X123006458Y-92610072D01*
X122986496Y-92800000D01*
X122987186Y-92806565D01*
X123004334Y-92969716D01*
X123006458Y-92989928D01*
X123065473Y-93171556D01*
X123068776Y-93177278D01*
X123068777Y-93177279D01*
X123132129Y-93287008D01*
X123148867Y-93356004D01*
X123132129Y-93413008D01*
X123075388Y-93511286D01*
X123065473Y-93528460D01*
X123006458Y-93710088D01*
X122986496Y-93900016D01*
X121358500Y-93900016D01*
X121358500Y-93526866D01*
X121356807Y-93511281D01*
X121356807Y-93484065D01*
X121357631Y-93476478D01*
X121358000Y-93469672D01*
X121358000Y-93443115D01*
X121353193Y-93426744D01*
X121319201Y-93377874D01*
X121313652Y-93363072D01*
X121300615Y-93328295D01*
X121295232Y-93321113D01*
X121290921Y-93313238D01*
X121293446Y-93311856D01*
X121273721Y-93259058D01*
X121288774Y-93189676D01*
X121292501Y-93183877D01*
X121295234Y-93178885D01*
X121300615Y-93171705D01*
X121317963Y-93125429D01*
X121340720Y-93087147D01*
X121356328Y-93069135D01*
X121357999Y-93061452D01*
X121357999Y-93030332D01*
X121357630Y-93023517D01*
X121356806Y-93015929D01*
X121356807Y-92988725D01*
X121358130Y-92976539D01*
X121358500Y-92973134D01*
X121358500Y-92526866D01*
X121358132Y-92523475D01*
X121358131Y-92523465D01*
X121357060Y-92513607D01*
X121357060Y-92486393D01*
X121358131Y-92476535D01*
X121358132Y-92476525D01*
X121358500Y-92473134D01*
X121358500Y-92026866D01*
X121356807Y-92011281D01*
X121356807Y-91984065D01*
X121357631Y-91976478D01*
X121358000Y-91969672D01*
X121358000Y-91943115D01*
X121353193Y-91926744D01*
X121319201Y-91877874D01*
X121300615Y-91828295D01*
X121295232Y-91821113D01*
X121290921Y-91813238D01*
X121293446Y-91811856D01*
X121273721Y-91759058D01*
X121288774Y-91689676D01*
X121292501Y-91683877D01*
X121295234Y-91678885D01*
X121300615Y-91671705D01*
X121317963Y-91625429D01*
X121340720Y-91587147D01*
X121356328Y-91569135D01*
X121357999Y-91561452D01*
X121357999Y-91530332D01*
X121357630Y-91523517D01*
X121356806Y-91515929D01*
X121356807Y-91488725D01*
X121358130Y-91476539D01*
X121358500Y-91473134D01*
X121358500Y-91026866D01*
X121358132Y-91023475D01*
X121358131Y-91023465D01*
X121357060Y-91013607D01*
X121357060Y-90986393D01*
X121358131Y-90976535D01*
X121358132Y-90976525D01*
X121358500Y-90973134D01*
X121358500Y-90526866D01*
X121356807Y-90511281D01*
X121356807Y-90484065D01*
X121357631Y-90476478D01*
X121358000Y-90469672D01*
X121358000Y-90443115D01*
X121353193Y-90426744D01*
X121319201Y-90377874D01*
X121300615Y-90328295D01*
X121295232Y-90321113D01*
X121290921Y-90313238D01*
X121293446Y-90311856D01*
X121273721Y-90259058D01*
X121286939Y-90198134D01*
X126101500Y-90198134D01*
X126108255Y-90260316D01*
X126159385Y-90396705D01*
X126246739Y-90513261D01*
X126363295Y-90600615D01*
X126499684Y-90651745D01*
X126561866Y-90658500D01*
X128358134Y-90658500D01*
X128420316Y-90651745D01*
X128556705Y-90600615D01*
X128673261Y-90513261D01*
X128760615Y-90396705D01*
X128811745Y-90260316D01*
X128818500Y-90198134D01*
X128818500Y-88401866D01*
X128811745Y-88339684D01*
X128760615Y-88203295D01*
X128673261Y-88086739D01*
X128556705Y-87999385D01*
X128420316Y-87948255D01*
X128358134Y-87941500D01*
X126561866Y-87941500D01*
X126499684Y-87948255D01*
X126363295Y-87999385D01*
X126246739Y-88086739D01*
X126159385Y-88203295D01*
X126108255Y-88339684D01*
X126101500Y-88401866D01*
X126101500Y-90198134D01*
X121286939Y-90198134D01*
X121288774Y-90189676D01*
X121292501Y-90183877D01*
X121295234Y-90178885D01*
X121300615Y-90171705D01*
X121317963Y-90125429D01*
X121340720Y-90087147D01*
X121356328Y-90069135D01*
X121357999Y-90061452D01*
X121357999Y-90030332D01*
X121357630Y-90023517D01*
X121356806Y-90015929D01*
X121356807Y-89988725D01*
X121358130Y-89976539D01*
X121358500Y-89973134D01*
X121358500Y-89526866D01*
X121358132Y-89523475D01*
X121358131Y-89523465D01*
X121357060Y-89513607D01*
X121357060Y-89486393D01*
X121358131Y-89476535D01*
X121358132Y-89476525D01*
X121358500Y-89473134D01*
X121358500Y-89026866D01*
X121356807Y-89011281D01*
X121356807Y-88984065D01*
X121357631Y-88976478D01*
X121358000Y-88969672D01*
X121358000Y-88943115D01*
X121353193Y-88926744D01*
X121319201Y-88877874D01*
X121300615Y-88828295D01*
X121295232Y-88821113D01*
X121290921Y-88813238D01*
X121293446Y-88811856D01*
X121273721Y-88759058D01*
X121288774Y-88689676D01*
X121292501Y-88683877D01*
X121295234Y-88678885D01*
X121300615Y-88671705D01*
X121317963Y-88625429D01*
X121340720Y-88587147D01*
X121356328Y-88569135D01*
X121357999Y-88561452D01*
X121357999Y-88530332D01*
X121357630Y-88523517D01*
X121356806Y-88515929D01*
X121356807Y-88488725D01*
X121358130Y-88476539D01*
X121358500Y-88473134D01*
X121358500Y-88026866D01*
X121358132Y-88023475D01*
X121358131Y-88023465D01*
X121357060Y-88013607D01*
X121357060Y-87986393D01*
X121358131Y-87976535D01*
X121358132Y-87976525D01*
X121358500Y-87973134D01*
X121358500Y-87526866D01*
X121356807Y-87511281D01*
X121356807Y-87484065D01*
X121357631Y-87476478D01*
X121358000Y-87469672D01*
X121358000Y-87443115D01*
X121353193Y-87426744D01*
X121319201Y-87377874D01*
X121300615Y-87328295D01*
X121295232Y-87321113D01*
X121290921Y-87313238D01*
X121293446Y-87311856D01*
X121273721Y-87259058D01*
X121288774Y-87189676D01*
X121292501Y-87183877D01*
X121295234Y-87178885D01*
X121300615Y-87171705D01*
X121317963Y-87125429D01*
X121340720Y-87087147D01*
X121356328Y-87069135D01*
X121357999Y-87061452D01*
X121357999Y-87030332D01*
X121357630Y-87023517D01*
X121356806Y-87015929D01*
X121356807Y-86988725D01*
X121358130Y-86976539D01*
X121358500Y-86973134D01*
X121358500Y-86567966D01*
X123588257Y-86567966D01*
X123618565Y-86702446D01*
X123621645Y-86712275D01*
X123701770Y-86909603D01*
X123706413Y-86918794D01*
X123817694Y-87100388D01*
X123823777Y-87108699D01*
X123963213Y-87269667D01*
X123970580Y-87276883D01*
X124134434Y-87412916D01*
X124142881Y-87418831D01*
X124326756Y-87526279D01*
X124336042Y-87530729D01*
X124535001Y-87606703D01*
X124544899Y-87609579D01*
X124648250Y-87630606D01*
X124662299Y-87629410D01*
X124666000Y-87619065D01*
X124666000Y-87618517D01*
X125174000Y-87618517D01*
X125178064Y-87632359D01*
X125191478Y-87634393D01*
X125198184Y-87633534D01*
X125208262Y-87631392D01*
X125412255Y-87570191D01*
X125421842Y-87566433D01*
X125613095Y-87472739D01*
X125621945Y-87467464D01*
X125795328Y-87343792D01*
X125803200Y-87337139D01*
X125954052Y-87186812D01*
X125960730Y-87178965D01*
X126088022Y-87001819D01*
X126089279Y-87002722D01*
X126136373Y-86959362D01*
X126206311Y-86947145D01*
X126271751Y-86974678D01*
X126299579Y-87006511D01*
X126359987Y-87105088D01*
X126506250Y-87273938D01*
X126678126Y-87416632D01*
X126871000Y-87529338D01*
X127079692Y-87609030D01*
X127084760Y-87610061D01*
X127084763Y-87610062D01*
X127179862Y-87629410D01*
X127298597Y-87653567D01*
X127303772Y-87653757D01*
X127303774Y-87653757D01*
X127516673Y-87661564D01*
X127516677Y-87661564D01*
X127521837Y-87661753D01*
X127526957Y-87661097D01*
X127526959Y-87661097D01*
X127738288Y-87634025D01*
X127738289Y-87634025D01*
X127743416Y-87633368D01*
X127748366Y-87631883D01*
X127952429Y-87570661D01*
X127952434Y-87570659D01*
X127957384Y-87569174D01*
X128157994Y-87470896D01*
X128339860Y-87341173D01*
X128448091Y-87233319D01*
X128510462Y-87199404D01*
X128581268Y-87204592D01*
X128638030Y-87247238D01*
X128655012Y-87278341D01*
X128673739Y-87328295D01*
X128699385Y-87396705D01*
X128786739Y-87513261D01*
X128903295Y-87600615D01*
X129039684Y-87651745D01*
X129101866Y-87658500D01*
X130898134Y-87658500D01*
X130960316Y-87651745D01*
X131096705Y-87600615D01*
X131213261Y-87513261D01*
X131300615Y-87396705D01*
X131351745Y-87260316D01*
X131358500Y-87198134D01*
X131358500Y-85401866D01*
X131351745Y-85339684D01*
X131300615Y-85203295D01*
X131213261Y-85086739D01*
X131096705Y-84999385D01*
X130960316Y-84948255D01*
X130898134Y-84941500D01*
X129101866Y-84941500D01*
X129039684Y-84948255D01*
X128903295Y-84999385D01*
X128786739Y-85086739D01*
X128699385Y-85203295D01*
X128696233Y-85211703D01*
X128654919Y-85321907D01*
X128612277Y-85378671D01*
X128545716Y-85403371D01*
X128476367Y-85388163D01*
X128443743Y-85362476D01*
X128393151Y-85306875D01*
X128393142Y-85306866D01*
X128389670Y-85303051D01*
X128385619Y-85299852D01*
X128385615Y-85299848D01*
X128218414Y-85167800D01*
X128218410Y-85167798D01*
X128214359Y-85164598D01*
X128178028Y-85144542D01*
X128162136Y-85135769D01*
X128018789Y-85056638D01*
X128013920Y-85054914D01*
X128013916Y-85054912D01*
X127813087Y-84983795D01*
X127813083Y-84983794D01*
X127808212Y-84982069D01*
X127803119Y-84981162D01*
X127803116Y-84981161D01*
X127593373Y-84943800D01*
X127593367Y-84943799D01*
X127588284Y-84942894D01*
X127514452Y-84941992D01*
X127370081Y-84940228D01*
X127370079Y-84940228D01*
X127364911Y-84940165D01*
X127144091Y-84973955D01*
X126931756Y-85043357D01*
X126733607Y-85146507D01*
X126729474Y-85149610D01*
X126729471Y-85149612D01*
X126622905Y-85229624D01*
X126554965Y-85280635D01*
X126529541Y-85307240D01*
X126461280Y-85378671D01*
X126400629Y-85442138D01*
X126397715Y-85446410D01*
X126397714Y-85446411D01*
X126392504Y-85454049D01*
X126300632Y-85588729D01*
X126292898Y-85600066D01*
X126237987Y-85645069D01*
X126167462Y-85653240D01*
X126103715Y-85621986D01*
X126083018Y-85597502D01*
X126002426Y-85472926D01*
X125996136Y-85464757D01*
X125852806Y-85307240D01*
X125845273Y-85300215D01*
X125678139Y-85168222D01*
X125669552Y-85162517D01*
X125483117Y-85059599D01*
X125473705Y-85055369D01*
X125272959Y-84984280D01*
X125262988Y-84981646D01*
X125191837Y-84968972D01*
X125178540Y-84970432D01*
X125174000Y-84984989D01*
X125174000Y-87618517D01*
X124666000Y-87618517D01*
X124666000Y-86572115D01*
X124661525Y-86556876D01*
X124660135Y-86555671D01*
X124652452Y-86554000D01*
X123603225Y-86554000D01*
X123589694Y-86557973D01*
X123588257Y-86567966D01*
X121358500Y-86567966D01*
X121358500Y-86526866D01*
X121358132Y-86523475D01*
X121358131Y-86523465D01*
X121357060Y-86513607D01*
X121357060Y-86486393D01*
X121358131Y-86476535D01*
X121358132Y-86476525D01*
X121358500Y-86473134D01*
X121358500Y-86034183D01*
X123584389Y-86034183D01*
X123585912Y-86042607D01*
X123598292Y-86046000D01*
X124647885Y-86046000D01*
X124663124Y-86041525D01*
X124664329Y-86040135D01*
X124666000Y-86032452D01*
X124666000Y-84983102D01*
X124662082Y-84969758D01*
X124647806Y-84967771D01*
X124609324Y-84973660D01*
X124599288Y-84976051D01*
X124396868Y-85042212D01*
X124387359Y-85046209D01*
X124198463Y-85144542D01*
X124189738Y-85150036D01*
X124019433Y-85277905D01*
X124011726Y-85284748D01*
X123864590Y-85438717D01*
X123858104Y-85446727D01*
X123738098Y-85622649D01*
X123733000Y-85631623D01*
X123643338Y-85824783D01*
X123639775Y-85834470D01*
X123584389Y-86034183D01*
X121358500Y-86034183D01*
X121358500Y-86026866D01*
X121356807Y-86011281D01*
X121356807Y-85984065D01*
X121357631Y-85976478D01*
X121358000Y-85969672D01*
X121358000Y-85943115D01*
X121353193Y-85926744D01*
X121319201Y-85877874D01*
X121300615Y-85828295D01*
X121295235Y-85821116D01*
X121295233Y-85821113D01*
X121268216Y-85785065D01*
X121243368Y-85718558D01*
X121258421Y-85649176D01*
X121308595Y-85598946D01*
X121369042Y-85583500D01*
X122296750Y-85583500D01*
X122317655Y-85585246D01*
X122332656Y-85587770D01*
X122332659Y-85587770D01*
X122337448Y-85588576D01*
X122343525Y-85588650D01*
X122345135Y-85588670D01*
X122345139Y-85588670D01*
X122350000Y-85588729D01*
X122354814Y-85588040D01*
X122354824Y-85588039D01*
X122371280Y-85585682D01*
X122378149Y-85584889D01*
X122525793Y-85571972D01*
X122531107Y-85570548D01*
X122531108Y-85570548D01*
X122690935Y-85527723D01*
X122690937Y-85527722D01*
X122696245Y-85526300D01*
X122701227Y-85523977D01*
X122851189Y-85454049D01*
X122851194Y-85454046D01*
X122856176Y-85451723D01*
X122983634Y-85362476D01*
X122996216Y-85353666D01*
X122996219Y-85353664D01*
X123000727Y-85350507D01*
X123125507Y-85225727D01*
X123226723Y-85081176D01*
X123229046Y-85076194D01*
X123229049Y-85076189D01*
X123298977Y-84926227D01*
X123298978Y-84926226D01*
X123301300Y-84921245D01*
X123317841Y-84859515D01*
X123345548Y-84756108D01*
X123345548Y-84756107D01*
X123346972Y-84750793D01*
X123358107Y-84623517D01*
X123383970Y-84557400D01*
X123441474Y-84515761D01*
X123483628Y-84508500D01*
X148215500Y-84508500D01*
X148283621Y-84528502D01*
G37*
G04 #@! TD.AperFunction*
M02*
